<svg width="24" height="41" viewBox="0 0 24 41" fill="none" xmlns="http://www.w3.org/2000/svg">
<rect width="7.71423" height="7.71423" transform="matrix(-1 0 0 1 24 0)" fill="#333333"/>
<rect width="7.71423" height="8.57137" transform="matrix(-1 0 0 1 24 7.71436)" fill="#333333"/>
<rect width="8.57137" height="8.57137" transform="matrix(-1 0 0 1 16.2856 7.71436)" fill="#333333"/>
<rect width="8.57137" height="7.71423" transform="matrix(-1 0 0 1 16.2856 16.2856)" fill="#333333"/>
<rect width="8.57137" height="7.71423" transform="matrix(-1 0 0 1 16.2856 24)" fill="#333333"/>
<rect width="7.71423" height="7.71423" transform="matrix(-1 0 0 1 7.71436 16.2856)" fill="#333333"/>
<rect width="7.71423" height="7.71423" transform="matrix(-1 0 0 1 24 16.2856)" fill="#333333"/>
<rect width="7.71423" height="7.71423" transform="matrix(-1 0 0 1 24 24)" fill="#333333"/>
<rect width="7.71423" height="8.57137" transform="matrix(-1 0 0 1 24 31.7139)" fill="#333333"/>
</svg>
