<svg width="54" height="76" viewBox="0 0 54 76" fill="none" xmlns="http://www.w3.org/2000/svg">
<path d="M3 0H0V3.04H3V0Z" fill="#CDB592"/>
<path d="M6 0H3V3.04H6V0Z" fill="#CDB592"/>
<path d="M9 0H6V3.04H9V0Z" fill="#CDB592"/>
<path d="M12 0H9V3.04H12V0Z" fill="#CDB592"/>
<path d="M15 0H12V3.04H15V0Z" fill="#CDB592"/>
<path d="M18 0H15V3.04H18V0Z" fill="#CDB592"/>
<path d="M21 0H18V3.04H21V0Z" fill="#CDB592"/>
<path d="M24 0H21V3.04H24V0Z" fill="#CDB592"/>
<path d="M27 0H24V3.04H27V0Z" fill="#CDB592"/>
<path d="M30 0H27V3.04H30V0Z" fill="#CDB592"/>
<path d="M33 0H30V3.04H33V0Z" fill="#CDB592"/>
<path d="M36 0H33V3.04H36V0Z" fill="#CDB592"/>
<path d="M39 0H36V3.04H39V0Z" fill="#CDB592"/>
<path d="M42 0H39V3.04H42V0Z" fill="#CDB592"/>
<path d="M45 0H42V3.04H45V0Z" fill="#CDB592"/>
<path d="M48 0H45V3.04H48V0Z" fill="#CDB592"/>
<path d="M51 0H48V3.04H51V0Z" fill="#CDB592"/>
<path d="M54 0H51V3.04H54V0Z" fill="#CDB592"/>
<path d="M3 3.04004H0V6.08004H3V3.04004Z" fill="#CDB592"/>
<path d="M6 3.04004H3V6.08004H6V3.04004Z" fill="#CDB592"/>
<path d="M9 3.04004H6V6.08004H9V3.04004Z" fill="#CDB592"/>
<path d="M12 3.04004H9V6.08004H12V3.04004Z" fill="#CDB592"/>
<path d="M15 3.04004H12V6.08004H15V3.04004Z" fill="#CDB592"/>
<path d="M18 3.04004H15V6.08004H18V3.04004Z" fill="#CDB592"/>
<path d="M21 3.04004H18V6.08004H21V3.04004Z" fill="#CDB592"/>
<path d="M24 3.04004H21V6.08004H24V3.04004Z" fill="#CDB592"/>
<path d="M27 3.04004H24V6.08004H27V3.04004Z" fill="#CDB592"/>
<path d="M30 3.04004H27V6.08004H30V3.04004Z" fill="#CDB592"/>
<path d="M33 3.04004H30V6.08004H33V3.04004Z" fill="#CDB592"/>
<path d="M36 3.04004H33V6.08004H36V3.04004Z" fill="#CDB592"/>
<path d="M39 3.04004H36V6.08004H39V3.04004Z" fill="#CDB592"/>
<path d="M42 3.04004H39V6.08004H42V3.04004Z" fill="#CDB592"/>
<path d="M45 3.04004H42V6.08004H45V3.04004Z" fill="#CDB592"/>
<path d="M48 3.04004H45V6.08004H48V3.04004Z" fill="#CDB592"/>
<path d="M51 3.04004H48V6.08004H51V3.04004Z" fill="#CDB592"/>
<path d="M54 3.04004H51V6.08004H54V3.04004Z" fill="#CDB592"/>
<path d="M3 6.07996H0V9.11996H3V6.07996Z" fill="#CDB592"/>
<path d="M6 6.07996H3V9.11996H6V6.07996Z" fill="#CDB592"/>
<path d="M9 6.07996H6V9.11996H9V6.07996Z" fill="#CDB592"/>
<path d="M12 6.07996H9V9.11996H12V6.07996Z" fill="#CDB592"/>
<path d="M15 6.07996H12V9.11996H15V6.07996Z" fill="#CDB592"/>
<path d="M18 6.07996H15V9.11996H18V6.07996Z" fill="#CDB592"/>
<path d="M21 6.07996H18V9.11996H21V6.07996Z" fill="#CDB592"/>
<path d="M24 6.07996H21V9.11996H24V6.07996Z" fill="#CDB592"/>
<path d="M27 6.07996H24V9.11996H27V6.07996Z" fill="#CDB592"/>
<path d="M30 6.07996H27V9.11996H30V6.07996Z" fill="#CDB592"/>
<path d="M33 6.07996H30V9.11996H33V6.07996Z" fill="#CDB592"/>
<path d="M36 6.07996H33V9.11996H36V6.07996Z" fill="#CDB592"/>
<path d="M39 6.07996H36V9.11996H39V6.07996Z" fill="#CDB592"/>
<path d="M42 6.07996H39V9.11996H42V6.07996Z" fill="#CDB592"/>
<path d="M45 6.07996H42V9.11996H45V6.07996Z" fill="#CDB592"/>
<path d="M48 6.07996H45V9.11996H48V6.07996Z" fill="#CDB592"/>
<path d="M51 6.07996H48V9.11996H51V6.07996Z" fill="#CDB592"/>
<path d="M54 6.07996H51V9.11996H54V6.07996Z" fill="#CDB592"/>
<path d="M3 9.12H0V12.16H3V9.12Z" fill="#CDB592"/>
<path d="M6 9.12H3V12.16H6V9.12Z" fill="#CDB592"/>
<path d="M9 9.12H6V12.16H9V9.12Z" fill="#333333"/>
<path d="M12 9.12H9V12.16H12V9.12Z" fill="#333333"/>
<path d="M15 9.12H12V12.16H15V9.12Z" fill="#333333"/>
<path d="M18 9.12H15V12.16H18V9.12Z" fill="#333333"/>
<path d="M21 9.12H18V12.16H21V9.12Z" fill="#333333"/>
<path d="M24 9.12H21V12.16H24V9.12Z" fill="#333333"/>
<path d="M27 9.12H24V12.16H27V9.12Z" fill="#333333"/>
<path d="M30 9.12H27V12.16H30V9.12Z" fill="#333333"/>
<path d="M33 9.12H30V12.16H33V9.12Z" fill="#333333"/>
<path d="M36 9.12H33V12.16H36V9.12Z" fill="#333333"/>
<path d="M39 9.12H36V12.16H39V9.12Z" fill="#333333"/>
<path d="M42 9.12H39V12.16H42V9.12Z" fill="#CDB592"/>
<path d="M45 9.12H42V12.16H45V9.12Z" fill="#4B4B4B"/>
<path d="M48 9.12H45V12.16H48V9.12Z" fill="#4B4B4B"/>
<path d="M51 9.12H48V12.16H51V9.12Z" fill="#CDB592"/>
<path d="M54 9.12H51V12.16H54V9.12Z" fill="#CDB592"/>
<path d="M3 12.16H0V15.2H3V12.16Z" fill="#CDB592"/>
<path d="M6 12.16H3V15.2H6V12.16Z" fill="#CDB592"/>
<path d="M9 12.16H6V15.2H9V12.16Z" fill="#CDB592"/>
<path d="M12 12.16H9V15.2H12V12.16Z" fill="#CDB592"/>
<path d="M15 12.16H12V15.2H15V12.16Z" fill="#CDB592"/>
<path d="M18 12.16H15V15.2H18V12.16Z" fill="#CDB592"/>
<path d="M21 12.16H18V15.2H21V12.16Z" fill="#CDB592"/>
<path d="M24 12.16H21V15.2H24V12.16Z" fill="#CDB592"/>
<path d="M27 12.16H24V15.2H27V12.16Z" fill="#CDB592"/>
<path d="M30 12.16H27V15.2H30V12.16Z" fill="#CDB592"/>
<path d="M33 12.16H30V15.2H33V12.16Z" fill="#CDB592"/>
<path d="M36 12.16H33V15.2H36V12.16Z" fill="#CDB592"/>
<path d="M39 12.16H36V15.2H39V12.16Z" fill="#CDB592"/>
<path d="M42 12.16H39V15.2H42V12.16Z" fill="#CDB592"/>
<path d="M45 12.16H42V15.2H45V12.16Z" fill="#CDB592"/>
<path d="M48 12.16H45V15.2H48V12.16Z" fill="#CDB592"/>
<path d="M51 12.16H48V15.2H51V12.16Z" fill="#CDB592"/>
<path d="M54 12.16H51V15.2H54V12.16Z" fill="#CDB592"/>
<path d="M3 15.2H0V18.2399H3V15.2Z" fill="#CDB592"/>
<path d="M6 15.2H3V18.2399H6V15.2Z" fill="#CDB592"/>
<path d="M9 15.2H6V18.2399H9V15.2Z" fill="#CDB592"/>
<path d="M12 15.2H9V18.2399H12V15.2Z" fill="#CDB592"/>
<path d="M15 15.2H12V18.2399H15V15.2Z" fill="#CDB592"/>
<path d="M18 15.2H15V18.2399H18V15.2Z" fill="#CDB592"/>
<path d="M21 15.2H18V18.2399H21V15.2Z" fill="#CDB592"/>
<path d="M24 15.2H21V18.2399H24V15.2Z" fill="#CDB592"/>
<path d="M27 15.2H24V18.2399H27V15.2Z" fill="#CDB592"/>
<path d="M30 15.2H27V18.2399H30V15.2Z" fill="#CDB592"/>
<path d="M33 15.2H30V18.2399H33V15.2Z" fill="#CDB592"/>
<path d="M36 15.2H33V18.2399H36V15.2Z" fill="#CDB592"/>
<path d="M39 15.2H36V18.2399H39V15.2Z" fill="#CDB592"/>
<path d="M42 15.2H39V18.2399H42V15.2Z" fill="#CDB592"/>
<path d="M45 15.2H42V18.2399H45V15.2Z" fill="#CDB592"/>
<path d="M48 15.2H45V18.2399H48V15.2Z" fill="#CDB592"/>
<path d="M51 15.2H48V18.2399H51V15.2Z" fill="#CDB592"/>
<path d="M54 15.2H51V18.2399H54V15.2Z" fill="#CDB592"/>
<path d="M3 18.24H0V21.28H3V18.24Z" fill="#CDB592"/>
<path d="M6 18.24H3V21.28H6V18.24Z" fill="#CDB592"/>
<path d="M9 18.24H6V21.28H9V18.24Z" fill="#4B4B4B"/>
<path d="M12 18.24H9V21.28H12V18.24Z" fill="#4B4B4B"/>
<path d="M15 18.24H12V21.28H15V18.24Z" fill="#CDB592"/>
<path d="M18 18.24H15V21.28H18V18.24Z" fill="#606060"/>
<path d="M21 18.24H18V21.28H21V18.24Z" fill="#CDB592"/>
<path d="M24 18.24H21V21.28H24V18.24Z" fill="#4B4B4B"/>
<path d="M27 18.24H24V21.28H27V18.24Z" fill="#4B4B4B"/>
<path d="M30 18.24H27V21.28H30V18.24Z" fill="#4B4B4B"/>
<path d="M33 18.24H30V21.28H33V18.24Z" fill="#CDB592"/>
<path d="M36 18.24H33V21.28H36V18.24Z" fill="#4B4B4B"/>
<path d="M39 18.24H36V21.28H39V18.24Z" fill="#CDB592"/>
<path d="M42 18.24H39V21.28H42V18.24Z" fill="#333333"/>
<path d="M45 18.24H42V21.28H45V18.24Z" fill="#333333"/>
<path d="M48 18.24H45V21.28H48V18.24Z" fill="#333333"/>
<path d="M51 18.24H48V21.28H51V18.24Z" fill="#CDB592"/>
<path d="M54 18.24H51V21.28H54V18.24Z" fill="#CDB592"/>
<path d="M3 21.28H0V24.32H3V21.28Z" fill="#CDB592"/>
<path d="M6 21.28H3V24.32H6V21.28Z" fill="#CDB592"/>
<path d="M9 21.28H6V24.32H9V21.28Z" fill="#CDB592"/>
<path d="M12 21.28H9V24.32H12V21.28Z" fill="#CDB592"/>
<path d="M15 21.28H12V24.32H15V21.28Z" fill="#CDB592"/>
<path d="M18 21.28H15V24.32H18V21.28Z" fill="#CDB592"/>
<path d="M21 21.28H18V24.32H21V21.28Z" fill="#CDB592"/>
<path d="M24 21.28H21V24.32H24V21.28Z" fill="#CDB592"/>
<path d="M27 21.28H24V24.32H27V21.28Z" fill="#CDB592"/>
<path d="M30 21.28H27V24.32H30V21.28Z" fill="#CDB592"/>
<path d="M33 21.28H30V24.32H33V21.28Z" fill="#CDB592"/>
<path d="M36 21.28H33V24.32H36V21.28Z" fill="#CDB592"/>
<path d="M39 21.28H36V24.32H39V21.28Z" fill="#CDB592"/>
<path d="M42 21.28H39V24.32H42V21.28Z" fill="#CDB592"/>
<path d="M45 21.28H42V24.32H45V21.28Z" fill="#CDB592"/>
<path d="M48 21.28H45V24.32H48V21.28Z" fill="#CDB592"/>
<path d="M51 21.28H48V24.32H51V21.28Z" fill="#CDB592"/>
<path d="M54 21.28H51V24.32H54V21.28Z" fill="#CDB592"/>
<path d="M3 24.3199H0V27.3599H3V24.3199Z" fill="#CDB592"/>
<path d="M6 24.3199H3V27.3599H6V24.3199Z" fill="#CDB592"/>
<path d="M9 24.3199H6V27.3599H9V24.3199Z" fill="#CDB592"/>
<path d="M12 24.3199H9V27.3599H12V24.3199Z" fill="#CDB592"/>
<path d="M15 24.3199H12V27.3599H15V24.3199Z" fill="#CDB592"/>
<path d="M18 24.3199H15V27.3599H18V24.3199Z" fill="#CDB592"/>
<path d="M21 24.3199H18V27.3599H21V24.3199Z" fill="#CDB592"/>
<path d="M24 24.3199H21V27.3599H24V24.3199Z" fill="#CDB592"/>
<path d="M27 24.3199H24V27.3599H27V24.3199Z" fill="#CDB592"/>
<path d="M30 24.3199H27V27.3599H30V24.3199Z" fill="#CDB592"/>
<path d="M33 24.3199H30V27.3599H33V24.3199Z" fill="#CDB592"/>
<path d="M36 24.3199H33V27.3599H36V24.3199Z" fill="#CDB592"/>
<path d="M39 24.3199H36V27.3599H39V24.3199Z" fill="#CDB592"/>
<path d="M42 24.3199H39V27.3599H42V24.3199Z" fill="#CDB592"/>
<path d="M45 24.3199H42V27.3599H45V24.3199Z" fill="#CDB592"/>
<path d="M48 24.3199H45V27.3599H48V24.3199Z" fill="#CDB592"/>
<path d="M51 24.3199H48V27.3599H51V24.3199Z" fill="#CDB592"/>
<path d="M54 24.3199H51V27.3599H54V24.3199Z" fill="#CDB592"/>
<path d="M3 27.36H0V30.4H3V27.36Z" fill="#CDB592"/>
<path d="M6 27.36H3V30.4H6V27.36Z" fill="#CDB592"/>
<path d="M9 27.36H6V30.4H9V27.36Z" fill="#333333"/>
<path d="M12 27.36H9V30.4H12V27.36Z" fill="#333333"/>
<path d="M15 27.36H12V30.4H15V27.36Z" fill="#333333"/>
<path d="M18 27.36H15V30.4H18V27.36Z" fill="#333333"/>
<path d="M21 27.36H18V30.4H21V27.36Z" fill="#333333"/>
<path d="M24 27.36H21V30.4H24V27.36Z" fill="#333333"/>
<path d="M27 27.36H24V30.4H27V27.36Z" fill="#333333"/>
<path d="M30 27.36H27V30.4H30V27.36Z" fill="#333333"/>
<path d="M33 27.36H30V30.4H33V27.36Z" fill="#333333"/>
<path d="M36 27.36H33V30.4H36V27.36Z" fill="#333333"/>
<path d="M39 27.36H36V30.4H39V27.36Z" fill="#CDB592"/>
<path d="M42 27.36H39V30.4H42V27.36Z" fill="#333333"/>
<path d="M45 27.36H42V30.4H45V27.36Z" fill="#333333"/>
<path d="M48 27.36H45V30.4H48V27.36Z" fill="#333333"/>
<path d="M51 27.36H48V30.4H51V27.36Z" fill="#CDB592"/>
<path d="M54 27.36H51V30.4H54V27.36Z" fill="#CDB592"/>
<path d="M3 30.4H0V33.44H3V30.4Z" fill="#CDB592"/>
<path d="M6 30.4H3V33.44H6V30.4Z" fill="#CDB592"/>
<path d="M9 30.4H6V33.44H9V30.4Z" fill="#CDB592"/>
<path d="M12 30.4H9V33.44H12V30.4Z" fill="#CDB592"/>
<path d="M15 30.4H12V33.44H15V30.4Z" fill="#CDB592"/>
<path d="M18 30.4H15V33.44H18V30.4Z" fill="#CDB592"/>
<path d="M21 30.4H18V33.44H21V30.4Z" fill="#CDB592"/>
<path d="M24 30.4H21V33.44H24V30.4Z" fill="#CDB592"/>
<path d="M27 30.4H24V33.44H27V30.4Z" fill="#CDB592"/>
<path d="M30 30.4H27V33.44H30V30.4Z" fill="#CDB592"/>
<path d="M33 30.4H30V33.44H33V30.4Z" fill="#CDB592"/>
<path d="M36 30.4H33V33.44H36V30.4Z" fill="#CDB592"/>
<path d="M39 30.4H36V33.44H39V30.4Z" fill="#CDB592"/>
<path d="M42 30.4H39V33.44H42V30.4Z" fill="#CDB592"/>
<path d="M45 30.4H42V33.44H45V30.4Z" fill="#CDB592"/>
<path d="M48 30.4H45V33.44H48V30.4Z" fill="#CDB592"/>
<path d="M51 30.4H48V33.44H51V30.4Z" fill="#CDB592"/>
<path d="M54 30.4H51V33.44H54V30.4Z" fill="#CDB592"/>
<path d="M3 33.4399H0V36.4799H3V33.4399Z" fill="#CDB592"/>
<path d="M6 33.4399H3V36.4799H6V33.4399Z" fill="#CDB592"/>
<path d="M9 33.4399H6V36.4799H9V33.4399Z" fill="#CDB592"/>
<path d="M12 33.4399H9V36.4799H12V33.4399Z" fill="#CDB592"/>
<path d="M15 33.4399H12V36.4799H15V33.4399Z" fill="#CDB592"/>
<path d="M18 33.4399H15V36.4799H18V33.4399Z" fill="#CDB592"/>
<path d="M21 33.4399H18V36.4799H21V33.4399Z" fill="#CDB592"/>
<path d="M24 33.4399H21V36.4799H24V33.4399Z" fill="#CDB592"/>
<path d="M27 33.4399H24V36.4799H27V33.4399Z" fill="#CDB592"/>
<path d="M30 33.4399H27V36.4799H30V33.4399Z" fill="#CDB592"/>
<path d="M33 33.4399H30V36.4799H33V33.4399Z" fill="#CDB592"/>
<path d="M36 33.4399H33V36.4799H36V33.4399Z" fill="#CDB592"/>
<path d="M39 33.4399H36V36.4799H39V33.4399Z" fill="#CDB592"/>
<path d="M42 33.4399H39V36.4799H42V33.4399Z" fill="#CDB592"/>
<path d="M45 33.4399H42V36.4799H45V33.4399Z" fill="#CDB592"/>
<path d="M48 33.4399H45V36.4799H48V33.4399Z" fill="#CDB592"/>
<path d="M51 33.4399H48V36.4799H51V33.4399Z" fill="#CDB592"/>
<path d="M54 33.4399H51V36.4799H54V33.4399Z" fill="#CDB592"/>
<path d="M3 36.48H0V39.52H3V36.48Z" fill="#CDB592"/>
<path d="M6 36.48H3V39.52H6V36.48Z" fill="#CDB592"/>
<path d="M9 36.48H6V39.52H9V36.48Z" fill="#333333"/>
<path d="M12 36.48H9V39.52H12V36.48Z" fill="#333333"/>
<path d="M15 36.48H12V39.52H15V36.48Z" fill="#333333"/>
<path d="M18 36.48H15V39.52H18V36.48Z" fill="#333333"/>
<path d="M21 36.48H18V39.52H21V36.48Z" fill="#CDB592"/>
<path d="M24 36.48H21V39.52H24V36.48Z" fill="#333333"/>
<path d="M27 36.48H24V39.52H27V36.48Z" fill="#333333"/>
<path d="M30 36.48H27V39.52H30V36.48Z" fill="#333333"/>
<path d="M33 36.48H30V39.52H33V36.48Z" fill="#333333"/>
<path d="M36 36.48H33V39.52H36V36.48Z" fill="#CDB592"/>
<path d="M39 36.48H36V39.52H39V36.48Z" fill="#4B4B4B"/>
<path d="M42 36.48H39V39.52H42V36.48Z" fill="#CDB592"/>
<path d="M45 36.48H42V39.52H45V36.48Z" fill="#606060"/>
<path d="M48 36.48H45V39.52H48V36.48Z" fill="#606060"/>
<path d="M51 36.48H48V39.52H51V36.48Z" fill="#CDB592"/>
<path d="M54 36.48H51V39.52H54V36.48Z" fill="#CDB592"/>
<path d="M3 39.52H0V42.56H3V39.52Z" fill="#CDB592"/>
<path d="M6 39.52H3V42.56H6V39.52Z" fill="#CDB592"/>
<path d="M9 39.52H6V42.56H9V39.52Z" fill="#CDB592"/>
<path d="M12 39.52H9V42.56H12V39.52Z" fill="#CDB592"/>
<path d="M15 39.52H12V42.56H15V39.52Z" fill="#CDB592"/>
<path d="M18 39.52H15V42.56H18V39.52Z" fill="#CDB592"/>
<path d="M21 39.52H18V42.56H21V39.52Z" fill="#CDB592"/>
<path d="M24 39.52H21V42.56H24V39.52Z" fill="#CDB592"/>
<path d="M27 39.52H24V42.56H27V39.52Z" fill="#CDB592"/>
<path d="M30 39.52H27V42.56H30V39.52Z" fill="#CDB592"/>
<path d="M33 39.52H30V42.56H33V39.52Z" fill="#CDB592"/>
<path d="M36 39.52H33V42.56H36V39.52Z" fill="#CDB592"/>
<path d="M39 39.52H36V42.56H39V39.52Z" fill="#CDB592"/>
<path d="M42 39.52H39V42.56H42V39.52Z" fill="#CDB592"/>
<path d="M45 39.52H42V42.56H45V39.52Z" fill="#CDB592"/>
<path d="M48 39.52H45V42.56H48V39.52Z" fill="#CDB592"/>
<path d="M51 39.52H48V42.56H51V39.52Z" fill="#CDB592"/>
<path d="M54 39.52H51V42.56H54V39.52Z" fill="#CDB592"/>
<path d="M3 42.5601H0V45.6001H3V42.5601Z" fill="#CDB592"/>
<path d="M6 42.5601H3V45.6001H6V42.5601Z" fill="#CDB592"/>
<path d="M9 42.5601H6V45.6001H9V42.5601Z" fill="#CDB592"/>
<path d="M12 42.5601H9V45.6001H12V42.5601Z" fill="#CDB592"/>
<path d="M15 42.5601H12V45.6001H15V42.5601Z" fill="#CDB592"/>
<path d="M18 42.5601H15V45.6001H18V42.5601Z" fill="#CDB592"/>
<path d="M21 42.5601H18V45.6001H21V42.5601Z" fill="#CDB592"/>
<path d="M24 42.5601H21V45.6001H24V42.5601Z" fill="#CDB592"/>
<path d="M27 42.5601H24V45.6001H27V42.5601Z" fill="#CDB592"/>
<path d="M30 42.5601H27V45.6001H30V42.5601Z" fill="#CDB592"/>
<path d="M33 42.5601H30V45.6001H33V42.5601Z" fill="#CDB592"/>
<path d="M36 42.5601H33V45.6001H36V42.5601Z" fill="#CDB592"/>
<path d="M39 42.5601H36V45.6001H39V42.5601Z" fill="#CDB592"/>
<path d="M42 42.5601H39V45.6001H42V42.5601Z" fill="#CDB592"/>
<path d="M45 42.5601H42V45.6001H45V42.5601Z" fill="#CDB592"/>
<path d="M48 42.5601H45V45.6001H48V42.5601Z" fill="#CDB592"/>
<path d="M51 42.5601H48V45.6001H51V42.5601Z" fill="#CDB592"/>
<path d="M54 42.5601H51V45.6001H54V42.5601Z" fill="#CDB592"/>
<path d="M3 45.6H0V48.64H3V45.6Z" fill="#CDB592"/>
<path d="M6 45.6H3V48.64H6V45.6Z" fill="#CDB592"/>
<path d="M9 45.6H6V48.64H9V45.6Z" fill="#333333"/>
<path d="M12 45.6H9V48.64H12V45.6Z" fill="#CDB592"/>
<path d="M15 45.6H12V48.64H15V45.6Z" fill="#4B4B4B"/>
<path d="M18 45.6H15V48.64H18V45.6Z" fill="#CDB592"/>
<path d="M21 45.6H18V48.64H21V45.6Z" fill="#606060"/>
<path d="M24 45.6H21V48.64H24V45.6Z" fill="#CDB592"/>
<path d="M27 45.6H24V48.64H27V45.6Z" fill="#333333"/>
<path d="M30 45.6H27V48.64H30V45.6Z" fill="#333333"/>
<path d="M33 45.6H30V48.64H33V45.6Z" fill="#333333"/>
<path d="M36 45.6H33V48.64H36V45.6Z" fill="#333333"/>
<path d="M39 45.6H36V48.64H39V45.6Z" fill="#333333"/>
<path d="M42 45.6H39V48.64H42V45.6Z" fill="#333333"/>
<path d="M45 45.6H42V48.64H45V45.6Z" fill="#333333"/>
<path d="M48 45.6H45V48.64H48V45.6Z" fill="#333333"/>
<path d="M51 45.6H48V48.64H51V45.6Z" fill="#CDB592"/>
<path d="M54 45.6H51V48.64H54V45.6Z" fill="#CDB592"/>
<path d="M3 48.64H0V51.68H3V48.64Z" fill="#CDB592"/>
<path d="M6 48.64H3V51.68H6V48.64Z" fill="#CDB592"/>
<path d="M9 48.64H6V51.68H9V48.64Z" fill="#CDB592"/>
<path d="M12 48.64H9V51.68H12V48.64Z" fill="#CDB592"/>
<path d="M15 48.64H12V51.68H15V48.64Z" fill="#CDB592"/>
<path d="M18 48.64H15V51.68H18V48.64Z" fill="#CDB592"/>
<path d="M21 48.64H18V51.68H21V48.64Z" fill="#CDB592"/>
<path d="M24 48.64H21V51.68H24V48.64Z" fill="#CDB592"/>
<path d="M27 48.64H24V51.68H27V48.64Z" fill="#CDB592"/>
<path d="M30 48.64H27V51.68H30V48.64Z" fill="#CDB592"/>
<path d="M33 48.64H30V51.68H33V48.64Z" fill="#CDB592"/>
<path d="M36 48.64H33V51.68H36V48.64Z" fill="#CDB592"/>
<path d="M39 48.64H36V51.68H39V48.64Z" fill="#CDB592"/>
<path d="M42 48.64H39V51.68H42V48.64Z" fill="#CDB592"/>
<path d="M45 48.64H42V51.68H45V48.64Z" fill="#CDB592"/>
<path d="M48 48.64H45V51.68H48V48.64Z" fill="#CDB592"/>
<path d="M51 48.64H48V51.68H51V48.64Z" fill="#CDB592"/>
<path d="M54 48.64H51V51.68H54V48.64Z" fill="#CDB592"/>
<path d="M3 51.6801H0V54.7201H3V51.6801Z" fill="#CDB592"/>
<path d="M6 51.6801H3V54.7201H6V51.6801Z" fill="#CDB592"/>
<path d="M9 51.6801H6V54.7201H9V51.6801Z" fill="#CDB592"/>
<path d="M12 51.6801H9V54.7201H12V51.6801Z" fill="#CDB592"/>
<path d="M15 51.6801H12V54.7201H15V51.6801Z" fill="#CDB592"/>
<path d="M18 51.6801H15V54.7201H18V51.6801Z" fill="#CDB592"/>
<path d="M21 51.6801H18V54.7201H21V51.6801Z" fill="#CDB592"/>
<path d="M24 51.6801H21V54.7201H24V51.6801Z" fill="#CDB592"/>
<path d="M27 51.6801H24V54.7201H27V51.6801Z" fill="#CDB592"/>
<path d="M30 51.6801H27V54.7201H30V51.6801Z" fill="#CDB592"/>
<path d="M33 51.6801H30V54.7201H33V51.6801Z" fill="#CDB592"/>
<path d="M36 51.6801H33V54.7201H36V51.6801Z" fill="#CDB592"/>
<path d="M39 51.6801H36V54.7201H39V51.6801Z" fill="#CDB592"/>
<path d="M42 51.6801H39V54.7201H42V51.6801Z" fill="#CDB592"/>
<path d="M45 51.6801H42V54.7201H45V51.6801Z" fill="#CDB592"/>
<path d="M48 51.6801H45V54.7201H48V51.6801Z" fill="#CDB592"/>
<path d="M51 51.6801H48V54.7201H51V51.6801Z" fill="#CDB592"/>
<path d="M54 51.6801H51V54.7201H54V51.6801Z" fill="#CDB592"/>
<path d="M3 54.72H0V57.76H3V54.72Z" fill="#CDB592"/>
<path d="M6 54.72H3V57.76H6V54.72Z" fill="#CDB592"/>
<path d="M9 54.72H6V57.76H9V54.72Z" fill="#333333"/>
<path d="M12 54.72H9V57.76H12V54.72Z" fill="#333333"/>
<path d="M15 54.72H12V57.76H15V54.72Z" fill="#333333"/>
<path d="M18 54.72H15V57.76H18V54.72Z" fill="#333333"/>
<path d="M21 54.72H18V57.76H21V54.72Z" fill="#333333"/>
<path d="M24 54.72H21V57.76H24V54.72Z" fill="#333333"/>
<path d="M27 54.72H24V57.76H27V54.72Z" fill="#333333"/>
<path d="M30 54.72H27V57.76H30V54.72Z" fill="#CDB592"/>
<path d="M33 54.72H30V57.76H33V54.72Z" fill="#333333"/>
<path d="M36 54.72H33V57.76H36V54.72Z" fill="#333333"/>
<path d="M39 54.72H36V57.76H39V54.72Z" fill="#333333"/>
<path d="M42 54.72H39V57.76H42V54.72Z" fill="#333333"/>
<path d="M45 54.72H42V57.76H45V54.72Z" fill="#CDB592"/>
<path d="M48 54.72H45V57.76H48V54.72Z" fill="#4B4B4B"/>
<path d="M51 54.72H48V57.76H51V54.72Z" fill="#CDB592"/>
<path d="M54 54.72H51V57.76H54V54.72Z" fill="#CDB592"/>
<path d="M3 57.76H0V60.8H3V57.76Z" fill="#CDB592"/>
<path d="M6 57.76H3V60.8H6V57.76Z" fill="#CDB592"/>
<path d="M9 57.76H6V60.8H9V57.76Z" fill="#CDB592"/>
<path d="M12 57.76H9V60.8H12V57.76Z" fill="#CDB592"/>
<path d="M15 57.76H12V60.8H15V57.76Z" fill="#CDB592"/>
<path d="M18 57.76H15V60.8H18V57.76Z" fill="#CDB592"/>
<path d="M21 57.76H18V60.8H21V57.76Z" fill="#CDB592"/>
<path d="M24 57.76H21V60.8H24V57.76Z" fill="#CDB592"/>
<path d="M27 57.76H24V60.8H27V57.76Z" fill="#CDB592"/>
<path d="M30 57.76H27V60.8H30V57.76Z" fill="#CDB592"/>
<path d="M33 57.76H30V60.8H33V57.76Z" fill="#CDB592"/>
<path d="M36 57.76H33V60.8H36V57.76Z" fill="#CDB592"/>
<path d="M39 57.76H36V60.8H39V57.76Z" fill="#CDB592"/>
<path d="M42 57.76H39V60.8H42V57.76Z" fill="#CDB592"/>
<path d="M45 57.76H42V60.8H45V57.76Z" fill="#CDB592"/>
<path d="M48 57.76H45V60.8H48V57.76Z" fill="#CDB592"/>
<path d="M51 57.76H48V60.8H51V57.76Z" fill="#CDB592"/>
<path d="M54 57.76H51V60.8H54V57.76Z" fill="#CDB592"/>
<path d="M3 60.8H0V63.84H3V60.8Z" fill="#CDB592"/>
<path d="M6 60.8H3V63.84H6V60.8Z" fill="#CDB592"/>
<path d="M9 60.8H6V63.84H9V60.8Z" fill="#CDB592"/>
<path d="M12 60.8H9V63.84H12V60.8Z" fill="#CDB592"/>
<path d="M15 60.8H12V63.84H15V60.8Z" fill="#CDB592"/>
<path d="M18 60.8H15V63.84H18V60.8Z" fill="#CDB592"/>
<path d="M21 60.8H18V63.84H21V60.8Z" fill="#CDB592"/>
<path d="M24 60.8H21V63.84H24V60.8Z" fill="#CDB592"/>
<path d="M27 60.8H24V63.84H27V60.8Z" fill="#CDB592"/>
<path d="M30 60.8H27V63.84H30V60.8Z" fill="#CDB592"/>
<path d="M33 60.8H30V63.84H33V60.8Z" fill="#CDB592"/>
<path d="M36 60.8H33V63.84H36V60.8Z" fill="#CDB592"/>
<path d="M39 60.8H36V63.84H39V60.8Z" fill="#CDB592"/>
<path d="M42 60.8H39V63.84H42V60.8Z" fill="#CDB592"/>
<path d="M45 60.8H42V63.84H45V60.8Z" fill="#CDB592"/>
<path d="M48 60.8H45V63.84H48V60.8Z" fill="#CDB592"/>
<path d="M51 60.8H48V63.84H51V60.8Z" fill="#CDB592"/>
<path d="M54 60.8H51V63.84H54V60.8Z" fill="#CDB592"/>
<path d="M3 63.84H0V66.88H3V63.84Z" fill="#CDB592"/>
<path d="M6 63.84H3V66.88H6V63.84Z" fill="#CDB592"/>
<path d="M9 63.84H6V66.88H9V63.84Z" fill="#333333"/>
<path d="M12 63.84H9V66.88H12V63.84Z" fill="#333333"/>
<path d="M15 63.84H12V66.88H15V63.84Z" fill="#333333"/>
<path d="M18 63.84H15V66.88H18V63.84Z" fill="#333333"/>
<path d="M21 63.84H18V66.88H21V63.84Z" fill="#333333"/>
<path d="M24 63.84H21V66.88H24V63.84Z" fill="#333333"/>
<path d="M27 63.84H24V66.88H27V63.84Z" fill="#333333"/>
<path d="M30 63.84H27V66.88H30V63.84Z" fill="#CDB592"/>
<path d="M33 63.84H30V66.88H33V63.84Z" fill="#4B4B4B"/>
<path d="M36 63.84H33V66.88H36V63.84Z" fill="#4B4B4B"/>
<path d="M39 63.84H36V66.88H39V63.84Z" fill="#CDB592"/>
<path d="M42 63.84H39V66.88H42V63.84Z" fill="#606060"/>
<path d="M45 63.84H42V66.88H45V63.84Z" fill="#606060"/>
<path d="M48 63.84H45V66.88H48V63.84Z" fill="#606060"/>
<path d="M51 63.84H48V66.88H51V63.84Z" fill="#CDB592"/>
<path d="M54 63.84H51V66.88H54V63.84Z" fill="#CDB592"/>
<path d="M3 66.88H0V69.92H3V66.88Z" fill="#CDB592"/>
<path d="M6 66.88H3V69.92H6V66.88Z" fill="#CDB592"/>
<path d="M9 66.88H6V69.92H9V66.88Z" fill="#CDB592"/>
<path d="M12 66.88H9V69.92H12V66.88Z" fill="#CDB592"/>
<path d="M15 66.88H12V69.92H15V66.88Z" fill="#CDB592"/>
<path d="M18 66.88H15V69.92H18V66.88Z" fill="#CDB592"/>
<path d="M21 66.88H18V69.92H21V66.88Z" fill="#CDB592"/>
<path d="M24 66.88H21V69.92H24V66.88Z" fill="#CDB592"/>
<path d="M27 66.88H24V69.92H27V66.88Z" fill="#CDB592"/>
<path d="M30 66.88H27V69.92H30V66.88Z" fill="#CDB592"/>
<path d="M33 66.88H30V69.92H33V66.88Z" fill="#CDB592"/>
<path d="M36 66.88H33V69.92H36V66.88Z" fill="#CDB592"/>
<path d="M39 66.88H36V69.92H39V66.88Z" fill="#CDB592"/>
<path d="M42 66.88H39V69.92H42V66.88Z" fill="#CDB592"/>
<path d="M45 66.88H42V69.92H45V66.88Z" fill="#CDB592"/>
<path d="M48 66.88H45V69.92H48V66.88Z" fill="#CDB592"/>
<path d="M51 66.88H48V69.92H51V66.88Z" fill="#CDB592"/>
<path d="M54 66.88H51V69.92H54V66.88Z" fill="#CDB592"/>
<path d="M3 69.92H0V72.96H3V69.92Z" fill="#CDB592"/>
<path d="M6 69.92H3V72.96H6V69.92Z" fill="#CDB592"/>
<path d="M9 69.92H6V72.96H9V69.92Z" fill="#CDB592"/>
<path d="M12 69.92H9V72.96H12V69.92Z" fill="#CDB592"/>
<path d="M15 69.92H12V72.96H15V69.92Z" fill="#CDB592"/>
<path d="M18 69.92H15V72.96H18V69.92Z" fill="#CDB592"/>
<path d="M21 69.92H18V72.96H21V69.92Z" fill="#CDB592"/>
<path d="M24 69.92H21V72.96H24V69.92Z" fill="#CDB592"/>
<path d="M27 69.92H24V72.96H27V69.92Z" fill="#CDB592"/>
<path d="M30 69.92H27V72.96H30V69.92Z" fill="#CDB592"/>
<path d="M33 69.92H30V72.96H33V69.92Z" fill="#CDB592"/>
<path d="M36 69.92H33V72.96H36V69.92Z" fill="#CDB592"/>
<path d="M39 69.92H36V72.96H39V69.92Z" fill="#CDB592"/>
<path d="M42 69.92H39V72.96H42V69.92Z" fill="#CDB592"/>
<path d="M45 69.92H42V72.96H45V69.92Z" fill="#CDB592"/>
<path d="M48 69.92H45V72.96H48V69.92Z" fill="#CDB592"/>
<path d="M51 69.92H48V72.96H51V69.92Z" fill="#CDB592"/>
<path d="M54 69.92H51V72.96H54V69.92Z" fill="#CDB592"/>
<path d="M3 72.96H0V76H3V72.96Z" fill="#CDB592"/>
<path d="M6 72.96H3V76H6V72.96Z" fill="#CDB592"/>
<path d="M9 72.96H6V76H9V72.96Z" fill="#CDB592"/>
<path d="M12 72.96H9V76H12V72.96Z" fill="#CDB592"/>
<path d="M15 72.96H12V76H15V72.96Z" fill="#CDB592"/>
<path d="M18 72.96H15V76H18V72.96Z" fill="#CDB592"/>
<path d="M21 72.96H18V76H21V72.96Z" fill="#CDB592"/>
<path d="M24 72.96H21V76H24V72.96Z" fill="#CDB592"/>
<path d="M27 72.96H24V76H27V72.96Z" fill="#CDB592"/>
<path d="M30 72.96H27V76H30V72.96Z" fill="#CDB592"/>
<path d="M33 72.96H30V76H33V72.96Z" fill="#CDB592"/>
<path d="M36 72.96H33V76H36V72.96Z" fill="#CDB592"/>
<path d="M39 72.96H36V76H39V72.96Z" fill="#CDB592"/>
<path d="M42 72.96H39V76H42V72.96Z" fill="#CDB592"/>
<path d="M45 72.96H42V76H45V72.96Z" fill="#CDB592"/>
<path d="M48 72.96H45V76H48V72.96Z" fill="#CDB592"/>
<path d="M51 72.96H48V76H51V72.96Z" fill="#CDB592"/>
<path d="M54 72.96H51V76H54V72.96Z" fill="#CDB592"/>
</svg>
