<svg width="64" height="63" viewBox="0 0 64 63" fill="none" xmlns="http://www.w3.org/2000/svg">
<path d="M2 -1H0V1H2V-1Z" fill="#E5B62E"/>
<path d="M4 -1H2V1H4V-1Z" fill="#E5B62E"/>
<path d="M6 -1H4V1H6V-1Z" fill="#E5B62E"/>
<path d="M8 -1H6V1H8V-1Z" fill="#E5B62E"/>
<path d="M10 -1H8V1H10V-1Z" fill="#E5B62E"/>
<path d="M12 -1H10V1H12V-1Z" fill="#E5B62E"/>
<path d="M14 -1H12V1H14V-1Z" fill="#E5B62E"/>
<path d="M16 -1H14V1H16V-1Z" fill="#E5B62E"/>
<path d="M18 -1H16V1H18V-1Z" fill="#E5B62E"/>
<path d="M20 -1H18V1H20V-1Z" fill="#E5B62E"/>
<path d="M22 -1H20V1H22V-1Z" fill="#E5B62E"/>
<path d="M24 -1H22V1H24V-1Z" fill="#E5B62E"/>
<path d="M26 -1H24V1H26V-1Z" fill="#E5B62E"/>
<path d="M28 -1H26V1H28V-1Z" fill="#E5B62E"/>
<path d="M30 -1H28V1H30V-1Z" fill="#E5B62E"/>
<path d="M32 -1H30V1H32V-1Z" fill="#E5B62E"/>
<path d="M34 -1H32V1H34V-1Z" fill="#E5B62E"/>
<path d="M36 -1H34V1H36V-1Z" fill="#E5B62E"/>
<path d="M38 -1H36V1H38V-1Z" fill="#E5B62E"/>
<path d="M40 -1H38V1H40V-1Z" fill="#E5B62E"/>
<path d="M42 -1H40V1H42V-1Z" fill="#E5B62E"/>
<path d="M44 -1H42V1H44V-1Z" fill="#E5B62E"/>
<path d="M46 -1H44V1H46V-1Z" fill="#E5B62E"/>
<path d="M48 -1H46V1H48V-1Z" fill="#E5B62E"/>
<path d="M50 -1H48V1H50V-1Z" fill="#E5B62E"/>
<path d="M52 -1H50V1H52V-1Z" fill="#E5B62E"/>
<path d="M54 -1H52V1H54V-1Z" fill="#E5B62E"/>
<path d="M56 -1H54V1H56V-1Z" fill="#E5B62E"/>
<path d="M58 -1H56V1H58V-1Z" fill="#E5B62E"/>
<path d="M60 -1H58V1H60V-1Z" fill="#E5B62E"/>
<path d="M62 -1H60V1H62V-1Z" fill="#E5B62E"/>
<path d="M64 -1H62V1H64V-1Z" fill="#E5B62E"/>
<path d="M2 1H0V3H2V1Z" fill="#E5B62E"/>
<path d="M4 1H2V3H4V1Z" fill="#E5B62E"/>
<path d="M6 1H4V3H6V1Z" fill="#E5B62E"/>
<path d="M8 1H6V3H8V1Z" fill="#E5B62E"/>
<path d="M10 1H8V3H10V1Z" fill="#E5B62E"/>
<path d="M12 1H10V3H12V1Z" fill="#E5B62E"/>
<path d="M14 1H12V3H14V1Z" fill="#E5B62E"/>
<path d="M16 1H14V3H16V1Z" fill="#E5B62E"/>
<path d="M18 1H16V3H18V1Z" fill="#E5B62E"/>
<path d="M20 1H18V3H20V1Z" fill="#E5B62E"/>
<path d="M22 1H20V3H22V1Z" fill="#E5B62E"/>
<path d="M24 1H22V3H24V1Z" fill="#E5B62E"/>
<path d="M26 1H24V3H26V1Z" fill="#E5B62E"/>
<path d="M28 1H26V3H28V1Z" fill="#E5B62E"/>
<path d="M30 1H28V3H30V1Z" fill="#E5B62E"/>
<path d="M32 1H30V3H32V1Z" fill="#E5B62E"/>
<path d="M34 1H32V3H34V1Z" fill="#E5B62E"/>
<path d="M36 1H34V3H36V1Z" fill="#E5B62E"/>
<path d="M38 1H36V3H38V1Z" fill="#E5B62E"/>
<path d="M40 1H38V3H40V1Z" fill="#E5B62E"/>
<path d="M42 1H40V3H42V1Z" fill="#E5B62E"/>
<path d="M44 1H42V3H44V1Z" fill="#E5B62E"/>
<path d="M46 1H44V3H46V1Z" fill="#E5B62E"/>
<path d="M48 1H46V3H48V1Z" fill="#E5B62E"/>
<path d="M50 1H48V3H50V1Z" fill="#E5B62E"/>
<path d="M52 1H50V3H52V1Z" fill="#E5B62E"/>
<path d="M54 1H52V3H54V1Z" fill="#E5B62E"/>
<path d="M56 1H54V3H56V1Z" fill="#E5B62E"/>
<path d="M58 1H56V3H58V1Z" fill="#E5B62E"/>
<path d="M60 1H58V3H60V1Z" fill="#E5B62E"/>
<path d="M62 1H60V3H62V1Z" fill="#E5B62E"/>
<path d="M64 1H62V3H64V1Z" fill="#E5B62E"/>
<path d="M2 3H0V5H2V3Z" fill="#E5B62E"/>
<path d="M4 3H2V5H4V3Z" fill="#E5B62E"/>
<path d="M6 3H4V5H6V3Z" fill="#E5B62E"/>
<path d="M8 3H6V5H8V3Z" fill="#E5B62E"/>
<path d="M10 3H8V5H10V3Z" fill="#E5B62E"/>
<path d="M12 3H10V5H12V3Z" fill="#E5B62E"/>
<path d="M14 3H12V5H14V3Z" fill="#E5B62E"/>
<path d="M16 3H14V5H16V3Z" fill="#E5B62E"/>
<path d="M18 3H16V5H18V3Z" fill="#E5B62E"/>
<path d="M20 3H18V5H20V3Z" fill="#E5B62E"/>
<path d="M22 3H20V5H22V3Z" fill="#E5B62E"/>
<path d="M24 3H22V5H24V3Z" fill="#E5B62E"/>
<path d="M26 3H24V5H26V3Z" fill="#E5B62E"/>
<path d="M28 3H26V5H28V3Z" fill="#E5B62E"/>
<path d="M30 3H28V5H30V3Z" fill="#E5B62E"/>
<path d="M32 3H30V5H32V3Z" fill="#E5B62E"/>
<path d="M34 3H32V5H34V3Z" fill="#E5B62E"/>
<path d="M36 3H34V5H36V3Z" fill="#E5B62E"/>
<path d="M38 3H36V5H38V3Z" fill="#E5B62E"/>
<path d="M40 3H38V5H40V3Z" fill="#E5B62E"/>
<path d="M42 3H40V5H42V3Z" fill="#E5B62E"/>
<path d="M44 3H42V5H44V3Z" fill="#E5B62E"/>
<path d="M46 3H44V5H46V3Z" fill="#E5B62E"/>
<path d="M48 3H46V5H48V3Z" fill="#E5B62E"/>
<path d="M50 3H48V5H50V3Z" fill="#E5B62E"/>
<path d="M52 3H50V5H52V3Z" fill="#E5B62E"/>
<path d="M54 3H52V5H54V3Z" fill="#E5B62E"/>
<path d="M56 3H54V5H56V3Z" fill="#E5B62E"/>
<path d="M58 3H56V5H58V3Z" fill="#E5B62E"/>
<path d="M60 3H58V5H60V3Z" fill="#E5B62E"/>
<path d="M62 3H60V5H62V3Z" fill="#E5B62E"/>
<path d="M64 3H62V5H64V3Z" fill="#E5B62E"/>
<path d="M2 5H0V7H2V5Z" fill="#E5B62E"/>
<path d="M4 5H2V7H4V5Z" fill="#E5B62E"/>
<path d="M6 5H4V7H6V5Z" fill="#E5B62E"/>
<path d="M8 5H6V7H8V5Z" fill="#E5B62E"/>
<path d="M10 5H8V7H10V5Z" fill="#E5B62E"/>
<path d="M12 5H10V7H12V5Z" fill="#E5B62E"/>
<path d="M14 5H12V7H14V5Z" fill="#E5B62E"/>
<path d="M16 5H14V7H16V5Z" fill="#E5B62E"/>
<path d="M18 5H16V7H18V5Z" fill="#E5B62E"/>
<path d="M20 5H18V7H20V5Z" fill="#E5B62E"/>
<path d="M22 5H20V7H22V5Z" fill="#E5B62E"/>
<path d="M24 5H22V7H24V5Z" fill="#E5B62E"/>
<path d="M26 5H24V7H26V5Z" fill="#E5B62E"/>
<path d="M28 5H26V7H28V5Z" fill="#E5B62E"/>
<path d="M30 5H28V7H30V5Z" fill="#E5B62E"/>
<path d="M32 5H30V7H32V5Z" fill="#E5B62E"/>
<path d="M34 5H32V7H34V5Z" fill="#E5B62E"/>
<path d="M36 5H34V7H36V5Z" fill="#E5B62E"/>
<path d="M38 5H36V7H38V5Z" fill="#E5B62E"/>
<path d="M40 5H38V7H40V5Z" fill="#E5B62E"/>
<path d="M42 5H40V7H42V5Z" fill="#E5B62E"/>
<path d="M44 5H42V7H44V5Z" fill="#E5B62E"/>
<path d="M46 5H44V7H46V5Z" fill="#E5B62E"/>
<path d="M48 5H46V7H48V5Z" fill="#E5B62E"/>
<path d="M50 5H48V7H50V5Z" fill="#E5B62E"/>
<path d="M52 5H50V7H52V5Z" fill="#E5B62E"/>
<path d="M54 5H52V7H54V5Z" fill="#E5B62E"/>
<path d="M56 5H54V7H56V5Z" fill="#E5B62E"/>
<path d="M58 5H56V7H58V5Z" fill="#E5B62E"/>
<path d="M60 5H58V7H60V5Z" fill="#E5B62E"/>
<path d="M62 5H60V7H62V5Z" fill="#E5B62E"/>
<path d="M64 5H62V7H64V5Z" fill="#E5B62E"/>
<path d="M2 7H0V9H2V7Z" fill="#E5B62E"/>
<path d="M4 7H2V9H4V7Z" fill="#E5B62E"/>
<path d="M6 7H4V9H6V7Z" fill="#E5B62E"/>
<path d="M8 7H6V9H8V7Z" fill="#E5B62E"/>
<path d="M10 7H8V9H10V7Z" fill="#E5B62E"/>
<path d="M12 7H10V9H12V7Z" fill="#E5B62E"/>
<path d="M14 7H12V9H14V7Z" fill="#E5B62E"/>
<path d="M16 7H14V9H16V7Z" fill="#E5B62E"/>
<path d="M18 7H16V9H18V7Z" fill="#E5B62E"/>
<path d="M20 7H18V9H20V7Z" fill="#E5B62E"/>
<path d="M22 7H20V9H22V7Z" fill="#E5B62E"/>
<path d="M24 7H22V9H24V7Z" fill="#E5B62E"/>
<path d="M26 7H24V9H26V7Z" fill="#E5B62E"/>
<path d="M28 7H26V9H28V7Z" fill="#E5B62E"/>
<path d="M30 7H28V9H30V7Z" fill="#E5B62E"/>
<path d="M32 7H30V9H32V7Z" fill="#E5B62E"/>
<path d="M34 7H32V9H34V7Z" fill="#E5B62E"/>
<path d="M36 7H34V9H36V7Z" fill="#E5B62E"/>
<path d="M38 7H36V9H38V7Z" fill="#E5B62E"/>
<path d="M40 7H38V9H40V7Z" fill="#E5B62E"/>
<path d="M42 7H40V9H42V7Z" fill="#E5B62E"/>
<path d="M44 7H42V9H44V7Z" fill="#E5B62E"/>
<path d="M46 7H44V9H46V7Z" fill="#E5B62E"/>
<path d="M48 7H46V9H48V7Z" fill="#E5B62E"/>
<path d="M50 7H48V9H50V7Z" fill="#E5B62E"/>
<path d="M52 7H50V9H52V7Z" fill="#E5B62E"/>
<path d="M54 7H52V9H54V7Z" fill="#E5B62E"/>
<path d="M56 7H54V9H56V7Z" fill="#E5B62E"/>
<path d="M58 7H56V9H58V7Z" fill="#E5B62E"/>
<path d="M60 7H58V9H60V7Z" fill="#E5B62E"/>
<path d="M62 7H60V9H62V7Z" fill="#E5B62E"/>
<path d="M64 7H62V9H64V7Z" fill="#E5B62E"/>
<path d="M2 9H0V11H2V9Z" fill="#E5B62E"/>
<path d="M4 9H2V11H4V9Z" fill="#E5B62E"/>
<path d="M6 9H4V11H6V9Z" fill="#E5B62E"/>
<path d="M8 9H6V11H8V9Z" fill="#E5B62E"/>
<path d="M10 9H8V11H10V9Z" fill="#E5B62E"/>
<path d="M12 9H10V11H12V9Z" fill="#E5B62E"/>
<path d="M14 9H12V11H14V9Z" fill="#E5B62E"/>
<path d="M16 9H14V11H16V9Z" fill="#E5B62E"/>
<path d="M18 9H16V11H18V9Z" fill="#E5B62E"/>
<path d="M20 9H18V11H20V9Z" fill="#E5B62E"/>
<path d="M22 9H20V11H22V9Z" fill="#E5B62E"/>
<path d="M24 9H22V11H24V9Z" fill="#E5B62E"/>
<path d="M26 9H24V11H26V9Z" fill="#E5B62E"/>
<path d="M28 9H26V11H28V9Z" fill="#E5B62E"/>
<path d="M30 9H28V11H30V9Z" fill="#E5B62E"/>
<path d="M32 9H30V11H32V9Z" fill="#E5B62E"/>
<path d="M34 9H32V11H34V9Z" fill="#E5B62E"/>
<path d="M36 9H34V11H36V9Z" fill="#E5B62E"/>
<path d="M38 9H36V11H38V9Z" fill="#E5B62E"/>
<path d="M40 9H38V11H40V9Z" fill="#E5B62E"/>
<path d="M42 9H40V11H42V9Z" fill="#E5B62E"/>
<path d="M44 9H42V11H44V9Z" fill="#E5B62E"/>
<path d="M46 9H44V11H46V9Z" fill="#E5B62E"/>
<path d="M48 9H46V11H48V9Z" fill="#E5B62E"/>
<path d="M50 9H48V11H50V9Z" fill="#E5B62E"/>
<path d="M52 9H50V11H52V9Z" fill="#E5B62E"/>
<path d="M54 9H52V11H54V9Z" fill="#E5B62E"/>
<path d="M56 9H54V11H56V9Z" fill="#E5B62E"/>
<path d="M58 9H56V11H58V9Z" fill="#E5B62E"/>
<path d="M60 9H58V11H60V9Z" fill="#E5B62E"/>
<path d="M62 9H60V11H62V9Z" fill="#E5B62E"/>
<path d="M64 9H62V11H64V9Z" fill="#E5B62E"/>
<path d="M2 11H0V13H2V11Z" fill="#E5B62E"/>
<path d="M4 11H2V13H4V11Z" fill="#E5B62E"/>
<path d="M6 11H4V13H6V11Z" fill="#E5B62E"/>
<path d="M8 11H6V13H8V11Z" fill="#E5B62E"/>
<path d="M10 11H8V13H10V11Z" fill="#E5B62E"/>
<path d="M12 11H10V13H12V11Z" fill="#E5B62E"/>
<path d="M14 11H12V13H14V11Z" fill="#E5B62E"/>
<path d="M16 11H14V13H16V11Z" fill="#E5B62E"/>
<path d="M18 11H16V13H18V11Z" fill="#E5B62E"/>
<path d="M20 11H18V13H20V11Z" fill="#E5B62E"/>
<path d="M22 11H20V13H22V11Z" fill="#E5B62E"/>
<path d="M24 11H22V13H24V11Z" fill="#E5B62E"/>
<path d="M26 11H24V13H26V11Z" fill="#E5B62E"/>
<path d="M28 11H26V13H28V11Z" fill="#E5B62E"/>
<path d="M30 11H28V13H30V11Z" fill="#E5B62E"/>
<path d="M32 11H30V13H32V11Z" fill="#E5B62E"/>
<path d="M34 11H32V13H34V11Z" fill="#E5B62E"/>
<path d="M36 11H34V13H36V11Z" fill="#E5B62E"/>
<path d="M38 11H36V13H38V11Z" fill="#E5B62E"/>
<path d="M40 11H38V13H40V11Z" fill="#E5B62E"/>
<path d="M42 11H40V13H42V11Z" fill="#E5B62E"/>
<path d="M44 11H42V13H44V11Z" fill="#E5B62E"/>
<path d="M46 11H44V13H46V11Z" fill="#E5B62E"/>
<path d="M48 11H46V13H48V11Z" fill="#E5B62E"/>
<path d="M50 11H48V13H50V11Z" fill="#E5B62E"/>
<path d="M52 11H50V13H52V11Z" fill="#E5B62E"/>
<path d="M54 11H52V13H54V11Z" fill="#E5B62E"/>
<path d="M56 11H54V13H56V11Z" fill="#E5B62E"/>
<path d="M58 11H56V13H58V11Z" fill="#E5B62E"/>
<path d="M60 11H58V13H60V11Z" fill="#E5B62E"/>
<path d="M62 11H60V13H62V11Z" fill="#E5B62E"/>
<path d="M64 11H62V13H64V11Z" fill="#E5B62E"/>
<path d="M2 13H0V15H2V13Z" fill="#E5B62E"/>
<path d="M4 13H2V15H4V13Z" fill="#E5B62E"/>
<path d="M6 13H4V15H6V13Z" fill="#E5B62E"/>
<path d="M8 13H6V15H8V13Z" fill="#C39C28"/>
<path d="M10 13H8V15H10V13Z" fill="#C39C28"/>
<path d="M12 13H10V15H12V13Z" fill="#333333"/>
<path d="M14 13H12V15H14V13Z" fill="#333333"/>
<path d="M16 13H14V15H16V13Z" fill="#333333"/>
<path d="M18 13H16V15H18V13Z" fill="#333333"/>
<path d="M20 13H18V15H20V13Z" fill="#333333"/>
<path d="M22 13H20V15H22V13Z" fill="#333333"/>
<path d="M24 13H22V15H24V13Z" fill="#333333"/>
<path d="M26 13H24V15H26V13Z" fill="#333333"/>
<path d="M28 13H26V15H28V13Z" fill="#333333"/>
<path d="M30 13H28V15H30V13Z" fill="#333333"/>
<path d="M32 13H30V15H32V13Z" fill="#333333"/>
<path d="M34 13H32V15H34V13Z" fill="#333333"/>
<path d="M36 13H34V15H36V13Z" fill="#333333"/>
<path d="M38 13H36V15H38V13Z" fill="#333333"/>
<path d="M40 13H38V15H40V13Z" fill="#333333"/>
<path d="M42 13H40V15H42V13Z" fill="#333333"/>
<path d="M44 13H42V15H44V13Z" fill="#333333"/>
<path d="M46 13H44V15H46V13Z" fill="#333333"/>
<path d="M48 13H46V15H48V13Z" fill="#333333"/>
<path d="M50 13H48V15H50V13Z" fill="#333333"/>
<path d="M52 13H50V15H52V13Z" fill="#333333"/>
<path d="M54 13H52V15H54V13Z" fill="#333333"/>
<path d="M56 13H54V15H56V13Z" fill="#C39C28"/>
<path d="M58 13H56V15H58V13Z" fill="#C39C28"/>
<path d="M60 13H58V15H60V13Z" fill="#E5B62E"/>
<path d="M62 13H60V15H62V13Z" fill="#E5B62E"/>
<path d="M64 13H62V15H64V13Z" fill="#E5B62E"/>
<path d="M2 15H0V17H2V15Z" fill="#E5B62E"/>
<path d="M4 15H2V17H4V15Z" fill="#E5B62E"/>
<path d="M6 15H4V17H6V15Z" fill="#E5B62E"/>
<path d="M8 15H6V17H8V15Z" fill="#C39C28"/>
<path d="M10 15H8V17H10V15Z" fill="#333333"/>
<path d="M12 15H10V17H12V15Z" fill="#333333"/>
<path d="M14 15H12V17H14V15Z" fill="#333333"/>
<path d="M16 15H14V17H16V15Z" fill="#333333"/>
<path d="M18 15H16V17H18V15Z" fill="#333333"/>
<path d="M20 15H18V17H20V15Z" fill="#333333"/>
<path d="M22 15H20V17H22V15Z" fill="#333333"/>
<path d="M24 15H22V17H24V15Z" fill="#333333"/>
<path d="M26 15H24V17H26V15Z" fill="#333333"/>
<path d="M28 15H26V17H28V15Z" fill="#333333"/>
<path d="M30 15H28V17H30V15Z" fill="#333333"/>
<path d="M32 15H30V17H32V15Z" fill="#333333"/>
<path d="M34 15H32V17H34V15Z" fill="#333333"/>
<path d="M36 15H34V17H36V15Z" fill="#333333"/>
<path d="M38 15H36V17H38V15Z" fill="#333333"/>
<path d="M40 15H38V17H40V15Z" fill="#333333"/>
<path d="M42 15H40V17H42V15Z" fill="#333333"/>
<path d="M44 15H42V17H44V15Z" fill="#333333"/>
<path d="M46 15H44V17H46V15Z" fill="#333333"/>
<path d="M48 15H46V17H48V15Z" fill="#333333"/>
<path d="M50 15H48V17H50V15Z" fill="#333333"/>
<path d="M52 15H50V17H52V15Z" fill="#333333"/>
<path d="M54 15H52V17H54V15Z" fill="#333333"/>
<path d="M56 15H54V17H56V15Z" fill="#333333"/>
<path d="M58 15H56V17H58V15Z" fill="#C39C28"/>
<path d="M60 15H58V17H60V15Z" fill="#E5B62E"/>
<path d="M62 15H60V17H62V15Z" fill="#E5B62E"/>
<path d="M64 15H62V17H64V15Z" fill="#E5B62E"/>
<path d="M2 17H0V19H2V17Z" fill="#E5B62E"/>
<path d="M4 17H2V19H4V17Z" fill="#E5B62E"/>
<path d="M6 17H4V19H6V17Z" fill="#E5B62E"/>
<path d="M8 17H6V19H8V17Z" fill="#C39C28"/>
<path d="M10 17H8V19H10V17Z" fill="#333333"/>
<path d="M12 17H10V19H12V17Z" fill="#333333"/>
<path d="M14 17H12V19H14V17Z" fill="#333333"/>
<path d="M16 17H14V19H16V17Z" fill="#333333"/>
<path d="M18 17H16V19H18V17Z" fill="#333333"/>
<path d="M20 17H18V19H20V17Z" fill="#333333"/>
<path d="M22 17H20V19H22V17Z" fill="#333333"/>
<path d="M24 17H22V19H24V17Z" fill="#333333"/>
<path d="M26 17H24V19H26V17Z" fill="#333333"/>
<path d="M28 17H26V19H28V17Z" fill="#333333"/>
<path d="M30 17H28V19H30V17Z" fill="#333333"/>
<path d="M32 17H30V19H32V17Z" fill="#333333"/>
<path d="M34 17H32V19H34V17Z" fill="#333333"/>
<path d="M36 17H34V19H36V17Z" fill="#333333"/>
<path d="M38 17H36V19H38V17Z" fill="#333333"/>
<path d="M40 17H38V19H40V17Z" fill="#333333"/>
<path d="M42 17H40V19H42V17Z" fill="#333333"/>
<path d="M44 17H42V19H44V17Z" fill="#333333"/>
<path d="M46 17H44V19H46V17Z" fill="#333333"/>
<path d="M48 17H46V19H48V17Z" fill="#333333"/>
<path d="M50 17H48V19H50V17Z" fill="#333333"/>
<path d="M52 17H50V19H52V17Z" fill="#333333"/>
<path d="M54 17H52V19H54V17Z" fill="#333333"/>
<path d="M56 17H54V19H56V17Z" fill="#333333"/>
<path d="M58 17H56V19H58V17Z" fill="#C39C28"/>
<path d="M60 17H58V19H60V17Z" fill="#E5B62E"/>
<path d="M62 17H60V19H62V17Z" fill="#E5B62E"/>
<path d="M64 17H62V19H64V17Z" fill="#E5B62E"/>
<path d="M2 19H0V21H2V19Z" fill="#E5B62E"/>
<path d="M4 19H2V21H4V19Z" fill="#E5B62E"/>
<path d="M6 19H4V21H6V19Z" fill="#C39C28"/>
<path d="M8 19H6V21H8V19Z" fill="#C39C28"/>
<path d="M10 19H8V21H10V19Z" fill="#333333"/>
<path d="M12 19H10V21H12V19Z" fill="#333333"/>
<path d="M14 19H12V21H14V19Z" fill="#333333"/>
<path d="M16 19H14V21H16V19Z" fill="#333333"/>
<path d="M18 19H16V21H18V19Z" fill="#333333"/>
<path d="M20 19H18V21H20V19Z" fill="#333333"/>
<path d="M22 19H20V21H22V19Z" fill="#333333"/>
<path d="M24 19H22V21H24V19Z" fill="#333333"/>
<path d="M26 19H24V21H26V19Z" fill="#333333"/>
<path d="M28 19H26V21H28V19Z" fill="#333333"/>
<path d="M30 19H28V21H30V19Z" fill="#333333"/>
<path d="M32 19H30V21H32V19Z" fill="#333333"/>
<path d="M34 19H32V21H34V19Z" fill="#333333"/>
<path d="M36 19H34V21H36V19Z" fill="#333333"/>
<path d="M38 19H36V21H38V19Z" fill="#333333"/>
<path d="M40 19H38V21H40V19Z" fill="#333333"/>
<path d="M42 19H40V21H42V19Z" fill="#333333"/>
<path d="M44 19H42V21H44V19Z" fill="#333333"/>
<path d="M46 19H44V21H46V19Z" fill="#333333"/>
<path d="M48 19H46V21H48V19Z" fill="#333333"/>
<path d="M50 19H48V21H50V19Z" fill="#333333"/>
<path d="M52 19H50V21H52V19Z" fill="#333333"/>
<path d="M54 19H52V21H54V19Z" fill="#333333"/>
<path d="M56 19H54V21H56V19Z" fill="#333333"/>
<path d="M58 19H56V21H58V19Z" fill="#C39C28"/>
<path d="M60 19H58V21H60V19Z" fill="#C39C28"/>
<path d="M62 19H60V21H62V19Z" fill="#E5B62E"/>
<path d="M64 19H62V21H64V19Z" fill="#E5B62E"/>
<path d="M2 21H0V23H2V21Z" fill="#E5B62E"/>
<path d="M4 21H2V23H4V21Z" fill="#E5B62E"/>
<path d="M6 21H4V23H6V21Z" fill="#C39C28"/>
<path d="M8 21H6V23H8V21Z" fill="#333333"/>
<path d="M10 21H8V23H10V21Z" fill="#333333"/>
<path d="M12 21H10V23H12V21Z" fill="#333333"/>
<path d="M14 21H12V23H14V21Z" fill="#333333"/>
<path d="M16 21H14V23H16V21Z" fill="#333333"/>
<path d="M18 21H16V23H18V21Z" fill="#333333"/>
<path d="M20 21H18V23H20V21Z" fill="#333333"/>
<path d="M22 21H20V23H22V21Z" fill="#333333"/>
<path d="M24 21H22V23H24V21Z" fill="#333333"/>
<path d="M26 21H24V23H26V21Z" fill="#333333"/>
<path d="M28 21H26V23H28V21Z" fill="#333333"/>
<path d="M30 21H28V23H30V21Z" fill="#333333"/>
<path d="M32 21H30V23H32V21Z" fill="#333333"/>
<path d="M34 21H32V23H34V21Z" fill="#333333"/>
<path d="M36 21H34V23H36V21Z" fill="#333333"/>
<path d="M38 21H36V23H38V21Z" fill="#333333"/>
<path d="M40 21H38V23H40V21Z" fill="#333333"/>
<path d="M42 21H40V23H42V21Z" fill="#333333"/>
<path d="M44 21H42V23H44V21Z" fill="#333333"/>
<path d="M46 21H44V23H46V21Z" fill="#333333"/>
<path d="M48 21H46V23H48V21Z" fill="#333333"/>
<path d="M50 21H48V23H50V21Z" fill="#333333"/>
<path d="M52 21H50V23H52V21Z" fill="#333333"/>
<path d="M54 21H52V23H54V21Z" fill="#333333"/>
<path d="M56 21H54V23H56V21Z" fill="#333333"/>
<path d="M58 21H56V23H58V21Z" fill="#333333"/>
<path d="M60 21H58V23H60V21Z" fill="#C39C28"/>
<path d="M62 21H60V23H62V21Z" fill="#E5B62E"/>
<path d="M64 21H62V23H64V21Z" fill="#E5B62E"/>
<path d="M2 23H0V25H2V23Z" fill="#E5B62E"/>
<path d="M4 23H2V25H4V23Z" fill="#E5B62E"/>
<path d="M6 23H4V25H6V23Z" fill="#C39C28"/>
<path d="M8 23H6V25H8V23Z" fill="#333333"/>
<path d="M10 23H8V25H10V23Z" fill="#333333"/>
<path d="M12 23H10V25H12V23Z" fill="#333333"/>
<path d="M14 23H12V25H14V23Z" fill="#333333"/>
<path d="M16 23H14V25H16V23Z" fill="#333333"/>
<path d="M18 23H16V25H18V23Z" fill="#333333"/>
<path d="M20 23H18V25H20V23Z" fill="#333333"/>
<path d="M22 23H20V25H22V23Z" fill="#333333"/>
<path d="M24 23H22V25H24V23Z" fill="#333333"/>
<path d="M26 23H24V25H26V23Z" fill="#333333"/>
<path d="M28 23H26V25H28V23Z" fill="#333333"/>
<path d="M30 23H28V25H30V23Z" fill="#333333"/>
<path d="M32 23H30V25H32V23Z" fill="#333333"/>
<path d="M34 23H32V25H34V23Z" fill="#333333"/>
<path d="M36 23H34V25H36V23Z" fill="#333333"/>
<path d="M38 23H36V25H38V23Z" fill="#333333"/>
<path d="M40 23H38V25H40V23Z" fill="#333333"/>
<path d="M42 23H40V25H42V23Z" fill="#333333"/>
<path d="M44 23H42V25H44V23Z" fill="#333333"/>
<path d="M46 23H44V25H46V23Z" fill="#333333"/>
<path d="M48 23H46V25H48V23Z" fill="#333333"/>
<path d="M50 23H48V25H50V23Z" fill="#333333"/>
<path d="M52 23H50V25H52V23Z" fill="#333333"/>
<path d="M54 23H52V25H54V23Z" fill="#333333"/>
<path d="M56 23H54V25H56V23Z" fill="#333333"/>
<path d="M58 23H56V25H58V23Z" fill="#333333"/>
<path d="M60 23H58V25H60V23Z" fill="#C39C28"/>
<path d="M62 23H60V25H62V23Z" fill="#E5B62E"/>
<path d="M64 23H62V25H64V23Z" fill="#E5B62E"/>
<path d="M2 25H0V27H2V25Z" fill="#E5B62E"/>
<path d="M4 25H2V27H4V25Z" fill="#E5B62E"/>
<path d="M6 25H4V27H6V25Z" fill="#C39C28"/>
<path d="M8 25H6V27H8V25Z" fill="#333333"/>
<path d="M10 25H8V27H10V25Z" fill="#333333"/>
<path d="M12 25H10V27H12V25Z" fill="#333333"/>
<path d="M14 25H12V27H14V25Z" fill="#333333"/>
<path d="M16 25H14V27H16V25Z" fill="#333333"/>
<path d="M28 25H26V27H28V25Z" fill="#333333"/>
<path d="M30 25H28V27H30V25Z" fill="#333333"/>
<path d="M32 25H30V27H32V25Z" fill="#333333"/>
<path d="M34 25H32V27H34V25Z" fill="#333333"/>
<path d="M36 25H34V27H36V25Z" fill="#333333"/>
<path d="M38 25H36V27H38V25Z" fill="#333333"/>
<path d="M50 25H48V27H50V25Z" fill="#333333"/>
<path d="M52 25H50V27H52V25Z" fill="#333333"/>
<path d="M54 25H52V27H54V25Z" fill="#333333"/>
<path d="M56 25H54V27H56V25Z" fill="#333333"/>
<path d="M58 25H56V27H58V25Z" fill="#333333"/>
<path d="M60 25H58V27H60V25Z" fill="#C39C28"/>
<path d="M62 25H60V27H62V25Z" fill="#E5B62E"/>
<path d="M64 25H62V27H64V25Z" fill="#E5B62E"/>
<path d="M2 27H0V29H2V27Z" fill="#E5B62E"/>
<path d="M4 27H2V29H4V27Z" fill="#E5B62E"/>
<path d="M6 27H4V29H6V27Z" fill="#C39C28"/>
<path d="M8 27H6V29H8V27Z" fill="#333333"/>
<path d="M10 27H8V29H10V27Z" fill="#333333"/>
<path d="M12 27H10V29H12V27Z" fill="#333333"/>
<path d="M14 27H12V29H14V27Z" fill="#333333"/>
<path d="M16 27H14V29H16V27Z" fill="#333333"/>
<path d="M28 27H26V29H28V27Z" fill="#333333"/>
<path d="M30 27H28V29H30V27Z" fill="#333333"/>
<path d="M32 27H30V29H32V27Z" fill="#333333"/>
<path d="M34 27H32V29H34V27Z" fill="#333333"/>
<path d="M36 27H34V29H36V27Z" fill="#333333"/>
<path d="M38 27H36V29H38V27Z" fill="#333333"/>
<path d="M50 27H48V29H50V27Z" fill="#333333"/>
<path d="M52 27H50V29H52V27Z" fill="#333333"/>
<path d="M54 27H52V29H54V27Z" fill="#333333"/>
<path d="M56 27H54V29H56V27Z" fill="#333333"/>
<path d="M58 27H56V29H58V27Z" fill="#333333"/>
<path d="M60 27H58V29H60V27Z" fill="#C39C28"/>
<path d="M62 27H60V29H62V27Z" fill="#E5B62E"/>
<path d="M64 27H62V29H64V27Z" fill="#E5B62E"/>
<path d="M2 29H0V31H2V29Z" fill="#E5B62E"/>
<path d="M4 29H2V31H4V29Z" fill="#E5B62E"/>
<path d="M6 29H4V31H6V29Z" fill="#C39C28"/>
<path d="M8 29H6V31H8V29Z" fill="#333333"/>
<path d="M10 29H8V31H10V29Z" fill="#333333"/>
<path d="M12 29H10V31H12V29Z" fill="#333333"/>
<path d="M14 29H12V31H14V29Z" fill="#333333"/>
<path d="M16 29H14V31H16V29Z" fill="#333333"/>
<path d="M28 29H26V31H28V29Z" fill="#333333"/>
<path d="M30 29H28V31H30V29Z" fill="#333333"/>
<path d="M32 29H30V31H32V29Z" fill="#333333"/>
<path d="M34 29H32V31H34V29Z" fill="#333333"/>
<path d="M36 29H34V31H36V29Z" fill="#333333"/>
<path d="M38 29H36V31H38V29Z" fill="#333333"/>
<path d="M50 29H48V31H50V29Z" fill="#333333"/>
<path d="M52 29H50V31H52V29Z" fill="#333333"/>
<path d="M54 29H52V31H54V29Z" fill="#333333"/>
<path d="M56 29H54V31H56V29Z" fill="#333333"/>
<path d="M58 29H56V31H58V29Z" fill="#333333"/>
<path d="M60 29H58V31H60V29Z" fill="#C39C28"/>
<path d="M62 29H60V31H62V29Z" fill="#E5B62E"/>
<path d="M64 29H62V31H64V29Z" fill="#E5B62E"/>
<path d="M2 31H0V33H2V31Z" fill="#E5B62E"/>
<path d="M4 31H2V33H4V31Z" fill="#E5B62E"/>
<path d="M6 31H4V33H6V31Z" fill="#C39C28"/>
<path d="M8 31H6V33H8V31Z" fill="#333333"/>
<path d="M10 31H8V33H10V31Z" fill="#333333"/>
<path d="M12 31H10V33H12V31Z" fill="#333333"/>
<path d="M14 31H12V33H14V31Z" fill="#333333"/>
<path d="M16 31H14V33H16V31Z" fill="#333333"/>
<path d="M28 31H26V33H28V31Z" fill="#333333"/>
<path d="M30 31H28V33H30V31Z" fill="#333333"/>
<path d="M32 31H30V33H32V31Z" fill="#333333"/>
<path d="M34 31H32V33H34V31Z" fill="#333333"/>
<path d="M36 31H34V33H36V31Z" fill="#333333"/>
<path d="M38 31H36V33H38V31Z" fill="#333333"/>
<path d="M50 31H48V33H50V31Z" fill="#333333"/>
<path d="M52 31H50V33H52V31Z" fill="#333333"/>
<path d="M54 31H52V33H54V31Z" fill="#333333"/>
<path d="M56 31H54V33H56V31Z" fill="#333333"/>
<path d="M58 31H56V33H58V31Z" fill="#333333"/>
<path d="M60 31H58V33H60V31Z" fill="#C39C28"/>
<path d="M62 31H60V33H62V31Z" fill="#E5B62E"/>
<path d="M64 31H62V33H64V31Z" fill="#E5B62E"/>
<path d="M2 33H0V35H2V33Z" fill="#E5B62E"/>
<path d="M4 33H2V35H4V33Z" fill="#E5B62E"/>
<path d="M6 33H4V35H6V33Z" fill="#C39C28"/>
<path d="M8 33H6V35H8V33Z" fill="#333333"/>
<path d="M10 33H8V35H10V33Z" fill="#333333"/>
<path d="M12 33H10V35H12V33Z" fill="#333333"/>
<path d="M14 33H12V35H14V33Z" fill="#333333"/>
<path d="M16 33H14V35H16V33Z" fill="#333333"/>
<path d="M28 33H26V35H28V33Z" fill="#333333"/>
<path d="M30 33H28V35H30V33Z" fill="#333333"/>
<path d="M32 33H30V35H32V33Z" fill="#333333"/>
<path d="M34 33H32V35H34V33Z" fill="#333333"/>
<path d="M36 33H34V35H36V33Z" fill="#333333"/>
<path d="M38 33H36V35H38V33Z" fill="#333333"/>
<path d="M50 33H48V35H50V33Z" fill="#333333"/>
<path d="M52 33H50V35H52V33Z" fill="#333333"/>
<path d="M54 33H52V35H54V33Z" fill="#333333"/>
<path d="M56 33H54V35H56V33Z" fill="#333333"/>
<path d="M58 33H56V35H58V33Z" fill="#333333"/>
<path d="M60 33H58V35H60V33Z" fill="#C39C28"/>
<path d="M62 33H60V35H62V33Z" fill="#E5B62E"/>
<path d="M64 33H62V35H64V33Z" fill="#E5B62E"/>
<path d="M2 35H0V37H2V35Z" fill="#E5B62E"/>
<path d="M4 35H2V37H4V35Z" fill="#E5B62E"/>
<path d="M6 35H4V37H6V35Z" fill="#C39C28"/>
<path d="M8 35H6V37H8V35Z" fill="#333333"/>
<path d="M10 35H8V37H10V35Z" fill="#333333"/>
<path d="M12 35H10V37H12V35Z" fill="#333333"/>
<path d="M14 35H12V37H14V35Z" fill="#333333"/>
<path d="M16 35H14V37H16V35Z" fill="#333333"/>
<path d="M28 35H26V37H28V35Z" fill="#333333"/>
<path d="M30 35H28V37H30V35Z" fill="#333333"/>
<path d="M32 35H30V37H32V35Z" fill="#333333"/>
<path d="M34 35H32V37H34V35Z" fill="#333333"/>
<path d="M36 35H34V37H36V35Z" fill="#333333"/>
<path d="M38 35H36V37H38V35Z" fill="#333333"/>
<path d="M50 35H48V37H50V35Z" fill="#333333"/>
<path d="M52 35H50V37H52V35Z" fill="#333333"/>
<path d="M54 35H52V37H54V35Z" fill="#333333"/>
<path d="M56 35H54V37H56V35Z" fill="#333333"/>
<path d="M58 35H56V37H58V35Z" fill="#333333"/>
<path d="M60 35H58V37H60V35Z" fill="#C39C28"/>
<path d="M62 35H60V37H62V35Z" fill="#E5B62E"/>
<path d="M64 35H62V37H64V35Z" fill="#E5B62E"/>
<path d="M2 37H0V39H2V37Z" fill="#E5B62E"/>
<path d="M4 37H2V39H4V37Z" fill="#E5B62E"/>
<path d="M6 37H4V39H6V37Z" fill="#C39C28"/>
<path d="M8 37H6V39H8V37Z" fill="#333333"/>
<path d="M10 37H8V39H10V37Z" fill="#333333"/>
<path d="M12 37H10V39H12V37Z" fill="#333333"/>
<path d="M14 37H12V39H14V37Z" fill="#333333"/>
<path d="M16 37H14V39H16V37Z" fill="#333333"/>
<path d="M18 25H16V27H18V25Z" fill="white"/>
<path d="M20 25H18V27H20V25Z" fill="white"/>
<path d="M22 25H20V27H22V25Z" fill="white"/>
<path d="M24 25H22V27H24V25Z" fill="white"/>
<path d="M26 25H24V27H26V25Z" fill="white"/>
<path d="M18 27H16V29H18V27Z" fill="white"/>
<path d="M20 27H18V29H20V27Z" fill="white"/>
<path d="M22 27H20V29H22V27Z" fill="white"/>
<path d="M24 27H22V29H24V27Z" fill="white"/>
<path d="M26 27H24V29H26V27Z" fill="white"/>
<path d="M18 29H16V31H18V29Z" fill="white"/>
<path d="M20 29H18V31H20V29Z" fill="white"/>
<path d="M22 29H20V31H22V29Z" fill="white"/>
<path d="M24 29H22V31H24V29Z" fill="white"/>
<path d="M26 29H24V31H26V29Z" fill="white"/>
<path d="M18 31H16V33H18V31Z" fill="white"/>
<path d="M20 31H18V33H20V31Z" fill="white"/>
<path d="M22 31H20V33H22V31Z" fill="white"/>
<path d="M24 31H22V33H24V31Z" fill="white"/>
<path d="M26 31H24V33H26V31Z" fill="white"/>
<path d="M18 33H16V35H18V33Z" fill="white"/>
<path d="M20 33H18V35H20V33Z" fill="white"/>
<path d="M22 33H20V35H22V33Z" fill="white"/>
<path d="M24 33H22V35H24V33Z" fill="white"/>
<path d="M26 33H24V35H26V33Z" fill="white"/>
<path d="M18 35H16V37H18V35Z" fill="white"/>
<path d="M20 35H18V37H20V35Z" fill="white"/>
<path d="M22 35H20V37H22V35Z" fill="white"/>
<path d="M24 35H22V37H24V35Z" fill="white"/>
<path d="M26 35H24V37H26V35Z" fill="white"/>
<path d="M18 37H16V39H18V37Z" fill="white"/>
<path d="M20 37H18V39H20V37Z" fill="white"/>
<path d="M22 37H20V39H22V37Z" fill="white"/>
<path d="M24 37H22V39H24V37Z" fill="white"/>
<path d="M26 37H24V39H26V37Z" fill="white"/>
<path d="M28 37H26V39H28V37Z" fill="#333333"/>
<path d="M30 37H28V39H30V37Z" fill="#333333"/>
<path d="M32 37H30V39H32V37Z" fill="#333333"/>
<path d="M34 37H32V39H34V37Z" fill="#333333"/>
<path d="M36 37H34V39H36V37Z" fill="#333333"/>
<path d="M38 37H36V39H38V37Z" fill="#333333"/>
<path d="M40 25H38V27H40V25Z" fill="white"/>
<path d="M42 25H40V27H42V25Z" fill="white"/>
<path d="M44 25H42V27H44V25Z" fill="white"/>
<path d="M46 25H44V27H46V25Z" fill="white"/>
<path d="M48 25H46V27H48V25Z" fill="white"/>
<path d="M40 27H38V29H40V27Z" fill="white"/>
<path d="M42 27H40V29H42V27Z" fill="white"/>
<path d="M44 27H42V29H44V27Z" fill="white"/>
<path d="M46 27H44V29H46V27Z" fill="white"/>
<path d="M48 27H46V29H48V27Z" fill="white"/>
<path d="M40 29H38V31H40V29Z" fill="white"/>
<path d="M42 29H40V31H42V29Z" fill="white"/>
<path d="M44 29H42V31H44V29Z" fill="white"/>
<path d="M46 29H44V31H46V29Z" fill="white"/>
<path d="M48 29H46V31H48V29Z" fill="white"/>
<path d="M40 31H38V33H40V31Z" fill="white"/>
<path d="M42 31H40V33H42V31Z" fill="white"/>
<path d="M44 31H42V33H44V31Z" fill="white"/>
<path d="M46 31H44V33H46V31Z" fill="white"/>
<path d="M48 31H46V33H48V31Z" fill="white"/>
<path d="M40 33H38V35H40V33Z" fill="white"/>
<path d="M42 33H40V35H42V33Z" fill="white"/>
<path d="M44 33H42V35H44V33Z" fill="white"/>
<path d="M46 33H44V35H46V33Z" fill="white"/>
<path d="M48 33H46V35H48V33Z" fill="white"/>
<path d="M40 35H38V37H40V35Z" fill="white"/>
<path d="M42 35H40V37H42V35Z" fill="white"/>
<path d="M44 35H42V37H44V35Z" fill="white"/>
<path d="M46 35H44V37H46V35Z" fill="white"/>
<path d="M48 35H46V37H48V35Z" fill="white"/>
<path d="M40 37H38V39H40V37Z" fill="white"/>
<path d="M42 37H40V39H42V37Z" fill="white"/>
<path d="M44 37H42V39H44V37Z" fill="white"/>
<path d="M46 37H44V39H46V37Z" fill="white"/>
<path d="M48 37H46V39H48V37Z" fill="white"/>
<path d="M50 37H48V39H50V37Z" fill="#333333"/>
<path d="M52 37H50V39H52V37Z" fill="#333333"/>
<path d="M54 37H52V39H54V37Z" fill="#333333"/>
<path d="M56 37H54V39H56V37Z" fill="#333333"/>
<path d="M58 37H56V39H58V37Z" fill="#333333"/>
<path d="M60 37H58V39H60V37Z" fill="#C39C28"/>
<path d="M62 37H60V39H62V37Z" fill="#E5B62E"/>
<path d="M64 37H62V39H64V37Z" fill="#E5B62E"/>
<path d="M2 39H0V41H2V39Z" fill="#E5B62E"/>
<path d="M4 39H2V41H4V39Z" fill="#E5B62E"/>
<path d="M6 39H4V41H6V39Z" fill="#C39C28"/>
<path d="M8 39H6V41H8V39Z" fill="#333333"/>
<path d="M10 39H8V41H10V39Z" fill="#333333"/>
<path d="M12 39H10V41H12V39Z" fill="#333333"/>
<path d="M14 39H12V41H14V39Z" fill="#333333"/>
<path d="M16 39H14V41H16V39Z" fill="#333333"/>
<path d="M18 39H16V41H18V39Z" fill="#333333"/>
<path d="M20 39H18V41H20V39Z" fill="#333333"/>
<path d="M22 39H20V41H22V39Z" fill="#333333"/>
<path d="M24 39H22V41H24V39Z" fill="#333333"/>
<path d="M26 39H24V41H26V39Z" fill="#333333"/>
<path d="M28 39H26V41H28V39Z" fill="#333333"/>
<path d="M30 39H28V41H30V39Z" fill="#333333"/>
<path d="M32 39H30V41H32V39Z" fill="#333333"/>
<path d="M34 39H32V41H34V39Z" fill="#333333"/>
<path d="M36 39H34V41H36V39Z" fill="#333333"/>
<path d="M38 39H36V41H38V39Z" fill="#333333"/>
<path d="M40 39H38V41H40V39Z" fill="#333333"/>
<path d="M42 39H40V41H42V39Z" fill="#333333"/>
<path d="M44 39H42V41H44V39Z" fill="#333333"/>
<path d="M46 39H44V41H46V39Z" fill="#333333"/>
<path d="M48 39H46V41H48V39Z" fill="#333333"/>
<path d="M50 39H48V41H50V39Z" fill="#333333"/>
<path d="M52 39H50V41H52V39Z" fill="#333333"/>
<path d="M54 39H52V41H54V39Z" fill="#333333"/>
<path d="M56 39H54V41H56V39Z" fill="#333333"/>
<path d="M58 39H56V41H58V39Z" fill="#333333"/>
<path d="M60 39H58V41H60V39Z" fill="#C39C28"/>
<path d="M62 39H60V41H62V39Z" fill="#E5B62E"/>
<path d="M64 39H62V41H64V39Z" fill="#E5B62E"/>
<path d="M2 41H0V43H2V41Z" fill="#E5B62E"/>
<path d="M4 41H2V43H4V41Z" fill="#E5B62E"/>
<path d="M6 41H4V43H6V41Z" fill="#C39C28"/>
<path d="M8 41H6V43H8V41Z" fill="#333333"/>
<path d="M10 41H8V43H10V41Z" fill="#333333"/>
<path d="M12 41H10V43H12V41Z" fill="#333333"/>
<path d="M14 41H12V43H14V41Z" fill="#333333"/>
<path d="M16 41H14V43H16V41Z" fill="#333333"/>
<path d="M18 41H16V43H18V41Z" fill="#333333"/>
<path d="M20 41H18V43H20V41Z" fill="#333333"/>
<path d="M22 41H20V43H22V41Z" fill="#333333"/>
<path d="M24 41H22V43H24V41Z" fill="#333333"/>
<path d="M26 41H24V43H26V41Z" fill="#333333"/>
<path d="M28 41H26V43H28V41Z" fill="#333333"/>
<path d="M30 41H28V43H30V41Z" fill="#333333"/>
<path d="M32 41H30V43H32V41Z" fill="#333333"/>
<path d="M34 41H32V43H34V41Z" fill="#333333"/>
<path d="M36 41H34V43H36V41Z" fill="#333333"/>
<path d="M38 41H36V43H38V41Z" fill="#333333"/>
<path d="M40 41H38V43H40V41Z" fill="#333333"/>
<path d="M42 41H40V43H42V41Z" fill="#333333"/>
<path d="M44 41H42V43H44V41Z" fill="#333333"/>
<path d="M46 41H44V43H46V41Z" fill="#333333"/>
<path d="M48 41H46V43H48V41Z" fill="#333333"/>
<path d="M50 41H48V43H50V41Z" fill="#333333"/>
<path d="M52 41H50V43H52V41Z" fill="#333333"/>
<path d="M54 41H52V43H54V41Z" fill="#333333"/>
<path d="M56 41H54V43H56V41Z" fill="#333333"/>
<path d="M58 41H56V43H58V41Z" fill="#333333"/>
<path d="M60 41H58V43H60V41Z" fill="#C39C28"/>
<path d="M62 41H60V43H62V41Z" fill="#E5B62E"/>
<path d="M64 41H62V43H64V41Z" fill="#E5B62E"/>
<path d="M2 43H0V45H2V43Z" fill="#E5B62E"/>
<path d="M4 43H2V45H4V43Z" fill="#E5B62E"/>
<path d="M6 43H4V45H6V43Z" fill="#C39C28"/>
<path d="M8 43H6V45H8V43Z" fill="#333333"/>
<path d="M10 43H8V45H10V43Z" fill="#333333"/>
<path d="M12 43H10V45H12V43Z" fill="#333333"/>
<path d="M14 43H12V45H14V43Z" fill="#333333"/>
<path d="M16 43H14V45H16V43Z" fill="#333333"/>
<path d="M18 43H16V45H18V43Z" fill="#333333"/>
<path d="M20 43H18V45H20V43Z" fill="#333333"/>
<path d="M22 43H20V45H22V43Z" fill="#333333"/>
<path d="M24 43H22V45H24V43Z" fill="#333333"/>
<path d="M26 43H24V45H26V43Z" fill="#333333"/>
<path d="M28 43H26V45H28V43Z" fill="#333333"/>
<path d="M30 43H28V45H30V43Z" fill="#333333"/>
<path d="M32 43H30V45H32V43Z" fill="#333333"/>
<path d="M34 43H32V45H34V43Z" fill="#333333"/>
<path d="M36 43H34V45H36V43Z" fill="#333333"/>
<path d="M38 43H36V45H38V43Z" fill="#333333"/>
<path d="M40 43H38V45H40V43Z" fill="#333333"/>
<path d="M42 43H40V45H42V43Z" fill="#333333"/>
<path d="M44 43H42V45H44V43Z" fill="#333333"/>
<path d="M46 43H44V45H46V43Z" fill="#333333"/>
<path d="M48 43H46V45H48V43Z" fill="#333333"/>
<path d="M50 43H48V45H50V43Z" fill="#333333"/>
<path d="M52 43H50V45H52V43Z" fill="#333333"/>
<path d="M54 43H52V45H54V43Z" fill="#333333"/>
<path d="M56 43H54V45H56V43Z" fill="#333333"/>
<path d="M58 43H56V45H58V43Z" fill="#333333"/>
<path d="M60 43H58V45H60V43Z" fill="#C39C28"/>
<path d="M62 43H60V45H62V43Z" fill="#E5B62E"/>
<path d="M64 43H62V45H64V43Z" fill="#E5B62E"/>
<path d="M2 45H0V47H2V45Z" fill="#E5B62E"/>
<path d="M4 45H2V47H4V45Z" fill="#E5B62E"/>
<path d="M6 45H4V47H6V45Z" fill="#C39C28"/>
<path d="M8 45H6V47H8V45Z" fill="#333333"/>
<path d="M10 45H8V47H10V45Z" fill="#333333"/>
<path d="M12 45H10V47H12V45Z" fill="#333333"/>
<path d="M14 45H12V47H14V45Z" fill="#333333"/>
<path d="M16 45H14V47H16V45Z" fill="#333333"/>
<path d="M18 45H16V47H18V45Z" fill="#333333"/>
<path d="M20 45H18V47H20V45Z" fill="#333333"/>
<path d="M22 45H20V47H22V45Z" fill="#333333"/>
<path d="M24 45H22V47H24V45Z" fill="#333333"/>
<path d="M26 45H24V47H26V45Z" fill="#333333"/>
<path d="M28 45H26V47H28V45Z" fill="#333333"/>
<path d="M30 45H28V47H30V45Z" fill="#333333"/>
<path d="M32 45H30V47H32V45Z" fill="#333333"/>
<path d="M34 45H32V47H34V45Z" fill="#333333"/>
<path d="M36 45H34V47H36V45Z" fill="#333333"/>
<path d="M38 45H36V47H38V45Z" fill="#333333"/>
<path d="M40 45H38V47H40V45Z" fill="#333333"/>
<path d="M42 45H40V47H42V45Z" fill="#333333"/>
<path d="M44 45H42V47H44V45Z" fill="#333333"/>
<path d="M46 45H44V47H46V45Z" fill="#333333"/>
<path d="M48 45H46V47H48V45Z" fill="#333333"/>
<path d="M50 45H48V47H50V45Z" fill="#333333"/>
<path d="M52 45H50V47H52V45Z" fill="#333333"/>
<path d="M54 45H52V47H54V45Z" fill="#333333"/>
<path d="M56 45H54V47H56V45Z" fill="#333333"/>
<path d="M58 45H56V47H58V45Z" fill="#333333"/>
<path d="M60 45H58V47H60V45Z" fill="#C39C28"/>
<path d="M62 45H60V47H62V45Z" fill="#E5B62E"/>
<path d="M64 45H62V47H64V45Z" fill="#E5B62E"/>
<path d="M2 47H0V49H2V47Z" fill="#E5B62E"/>
<path d="M4 47H2V49H4V47Z" fill="#E5B62E"/>
<path d="M6 47H4V49H6V47Z" fill="#C39C28"/>
<path d="M8 47H6V49H8V47Z" fill="#333333"/>
<path d="M10 47H8V49H10V47Z" fill="#333333"/>
<path d="M12 47H10V49H12V47Z" fill="#333333"/>
<path d="M14 47H12V49H14V47Z" fill="#333333"/>
<path d="M16 47H14V49H16V47Z" fill="#333333"/>
<path d="M18 47H16V49H18V47Z" fill="#333333"/>
<path d="M20 47H18V49H20V47Z" fill="#333333"/>
<path d="M22 47H20V49H22V47Z" fill="#333333"/>
<path d="M24 47H22V49H24V47Z" fill="#333333"/>
<path d="M26 47H24V49H26V47Z" fill="#333333"/>
<path d="M28 47H26V49H28V47Z" fill="#333333"/>
<path d="M30 47H28V49H30V47Z" fill="#333333"/>
<path d="M32 47H30V49H32V47Z" fill="#333333"/>
<path d="M34 47H32V49H34V47Z" fill="#333333"/>
<path d="M36 47H34V49H36V47Z" fill="#333333"/>
<path d="M38 47H36V49H38V47Z" fill="#333333"/>
<path d="M40 47H38V49H40V47Z" fill="#333333"/>
<path d="M42 47H40V49H42V47Z" fill="#333333"/>
<path d="M44 47H42V49H44V47Z" fill="#333333"/>
<path d="M46 47H44V49H46V47Z" fill="#333333"/>
<path d="M48 47H46V49H48V47Z" fill="#333333"/>
<path d="M50 47H48V49H50V47Z" fill="#333333"/>
<path d="M52 47H50V49H52V47Z" fill="#333333"/>
<path d="M54 47H52V49H54V47Z" fill="#333333"/>
<path d="M56 47H54V49H56V47Z" fill="#333333"/>
<path d="M58 47H56V49H58V47Z" fill="#333333"/>
<path d="M60 47H58V49H60V47Z" fill="#C39C28"/>
<path d="M62 47H60V49H62V47Z" fill="#E5B62E"/>
<path d="M64 47H62V49H64V47Z" fill="#E5B62E"/>
<path d="M2 49H0V51H2V49Z" fill="#E5B62E"/>
<path d="M4 49H2V51H4V49Z" fill="#E5B62E"/>
<path d="M6 49H4V51H6V49Z" fill="#C39C28"/>
<path d="M8 49H6V51H8V49Z" fill="#333333"/>
<path d="M10 49H8V51H10V49Z" fill="#333333"/>
<path d="M12 49H10V51H12V49Z" fill="#333333"/>
<path d="M14 49H12V51H14V49Z" fill="#333333"/>
<path d="M16 49H14V51H16V49Z" fill="#333333"/>
<path d="M18 49H16V51H18V49Z" fill="#333333"/>
<path d="M20 49H18V51H20V49Z" fill="#333333"/>
<path d="M22 49H20V51H22V49Z" fill="#333333"/>
<path d="M24 49H22V51H24V49Z" fill="#333333"/>
<path d="M26 49H24V51H26V49Z" fill="#333333"/>
<path d="M28 49H26V51H28V49Z" fill="#333333"/>
<path d="M30 49H28V51H30V49Z" fill="#333333"/>
<path d="M32 49H30V51H32V49Z" fill="#333333"/>
<path d="M34 49H32V51H34V49Z" fill="#333333"/>
<path d="M36 49H34V51H36V49Z" fill="#333333"/>
<path d="M38 49H36V51H38V49Z" fill="#333333"/>
<path d="M40 49H38V51H40V49Z" fill="#333333"/>
<path d="M42 49H40V51H42V49Z" fill="#333333"/>
<path d="M44 49H42V51H44V49Z" fill="#333333"/>
<path d="M46 49H44V51H46V49Z" fill="#333333"/>
<path d="M48 49H46V51H48V49Z" fill="#333333"/>
<path d="M50 49H48V51H50V49Z" fill="#333333"/>
<path d="M52 49H50V51H52V49Z" fill="#333333"/>
<path d="M54 49H52V51H54V49Z" fill="#333333"/>
<path d="M56 49H54V51H56V49Z" fill="#333333"/>
<path d="M58 49H56V51H58V49Z" fill="#333333"/>
<path d="M60 49H58V51H60V49Z" fill="#C39C28"/>
<path d="M62 49H60V51H62V49Z" fill="#E5B62E"/>
<path d="M64 49H62V51H64V49Z" fill="#E5B62E"/>
<path d="M2 51H0V53H2V51Z" fill="#E5B62E"/>
<path d="M4 51H2V53H4V51Z" fill="#E5B62E"/>
<path d="M6 51H4V53H6V51Z" fill="#C39C28"/>
<path d="M8 51H6V53H8V51Z" fill="#333333"/>
<path d="M10 51H8V53H10V51Z" fill="#333333"/>
<path d="M12 51H10V53H12V51Z" fill="#333333"/>
<path d="M14 51H12V53H14V51Z" fill="#333333"/>
<path d="M16 51H14V53H16V51Z" fill="#333333"/>
<path d="M18 51H16V53H18V51Z" fill="#333333"/>
<path d="M20 51H18V53H20V51Z" fill="#333333"/>
<path d="M22 51H20V53H22V51Z" fill="#333333"/>
<path d="M24 51H22V53H24V51Z" fill="#333333"/>
<path d="M26 51H24V53H26V51Z" fill="#333333"/>
<path d="M28 51H26V53H28V51Z" fill="#333333"/>
<path d="M30 51H28V53H30V51Z" fill="#333333"/>
<path d="M32 51H30V53H32V51Z" fill="#333333"/>
<path d="M34 51H32V53H34V51Z" fill="#333333"/>
<path d="M36 51H34V53H36V51Z" fill="#333333"/>
<path d="M38 51H36V53H38V51Z" fill="#333333"/>
<path d="M40 51H38V53H40V51Z" fill="#333333"/>
<path d="M42 51H40V53H42V51Z" fill="#333333"/>
<path d="M44 51H42V53H44V51Z" fill="#333333"/>
<path d="M46 51H44V53H46V51Z" fill="#333333"/>
<path d="M48 51H46V53H48V51Z" fill="#333333"/>
<path d="M50 51H48V53H50V51Z" fill="#333333"/>
<path d="M52 51H50V53H52V51Z" fill="#333333"/>
<path d="M54 51H52V53H54V51Z" fill="#333333"/>
<path d="M56 51H54V53H56V51Z" fill="#333333"/>
<path d="M58 51H56V53H58V51Z" fill="#333333"/>
<path d="M60 51H58V53H60V51Z" fill="#C39C28"/>
<path d="M62 51H60V53H62V51Z" fill="#E5B62E"/>
<path d="M64 51H62V53H64V51Z" fill="#E5B62E"/>
<path d="M2 53H0V55H2V53Z" fill="#E5B62E"/>
<path d="M4 53H2V55H4V53Z" fill="#E5B62E"/>
<path d="M6 53H4V55H6V53Z" fill="#E5B62E"/>
<path d="M8 53H6V55H8V53Z" fill="#C39C28"/>
<path d="M10 53H8V55H10V53Z" fill="#333333"/>
<path d="M12 53H10V55H12V53Z" fill="#333333"/>
<path d="M14 53H12V55H14V53Z" fill="#333333"/>
<path d="M16 53H14V55H16V53Z" fill="#333333"/>
<path d="M18 53H16V55H18V53Z" fill="#333333"/>
<path d="M20 53H18V55H20V53Z" fill="#333333"/>
<path d="M22 53H20V55H22V53Z" fill="#333333"/>
<path d="M24 53H22V55H24V53Z" fill="#333333"/>
<path d="M26 53H24V55H26V53Z" fill="#333333"/>
<path d="M28 53H26V55H28V53Z" fill="#333333"/>
<path d="M30 53H28V55H30V53Z" fill="#333333"/>
<path d="M32 53H30V55H32V53Z" fill="#333333"/>
<path d="M34 53H32V55H34V53Z" fill="#333333"/>
<path d="M36 53H34V55H36V53Z" fill="#333333"/>
<path d="M38 53H36V55H38V53Z" fill="#333333"/>
<path d="M40 53H38V55H40V53Z" fill="#333333"/>
<path d="M42 53H40V55H42V53Z" fill="#333333"/>
<path d="M44 53H42V55H44V53Z" fill="#333333"/>
<path d="M46 53H44V55H46V53Z" fill="#333333"/>
<path d="M48 53H46V55H48V53Z" fill="#333333"/>
<path d="M50 53H48V55H50V53Z" fill="#333333"/>
<path d="M52 53H50V55H52V53Z" fill="#333333"/>
<path d="M54 53H52V55H54V53Z" fill="#333333"/>
<path d="M56 53H54V55H56V53Z" fill="#333333"/>
<path d="M58 53H56V55H58V53Z" fill="#C39C28"/>
<path d="M60 53H58V55H60V53Z" fill="#E5B62E"/>
<path d="M62 53H60V55H62V53Z" fill="#E5B62E"/>
<path d="M64 53H62V55H64V53Z" fill="#E5B62E"/>
<path d="M2 55H0V57H2V55Z" fill="#E5B62E"/>
<path d="M4 55H2V57H4V55Z" fill="#E5B62E"/>
<path d="M6 55H4V57H6V55Z" fill="#E5B62E"/>
<path d="M8 55H6V57H8V55Z" fill="#E5B62E"/>
<path d="M10 55H8V57H10V55Z" fill="#C39C28"/>
<path d="M12 55H10V57H12V55Z" fill="#333333"/>
<path d="M14 55H12V57H14V55Z" fill="#333333"/>
<path d="M16 55H14V57H16V55Z" fill="#333333"/>
<path d="M18 55H16V57H18V55Z" fill="#333333"/>
<path d="M20 55H18V57H20V55Z" fill="#333333"/>
<path d="M22 55H20V57H22V55Z" fill="#333333"/>
<path d="M24 55H22V57H24V55Z" fill="#333333"/>
<path d="M26 55H24V57H26V55Z" fill="#333333"/>
<path d="M28 55H26V57H28V55Z" fill="#333333"/>
<path d="M30 55H28V57H30V55Z" fill="#333333"/>
<path d="M32 55H30V57H32V55Z" fill="#333333"/>
<path d="M34 55H32V57H34V55Z" fill="#333333"/>
<path d="M36 55H34V57H36V55Z" fill="#333333"/>
<path d="M38 55H36V57H38V55Z" fill="#333333"/>
<path d="M40 55H38V57H40V55Z" fill="#333333"/>
<path d="M42 55H40V57H42V55Z" fill="#333333"/>
<path d="M44 55H42V57H44V55Z" fill="#333333"/>
<path d="M46 55H44V57H46V55Z" fill="#333333"/>
<path d="M48 55H46V57H48V55Z" fill="#333333"/>
<path d="M50 55H48V57H50V55Z" fill="#333333"/>
<path d="M52 55H50V57H52V55Z" fill="#333333"/>
<path d="M54 55H52V57H54V55Z" fill="#333333"/>
<path d="M56 55H54V57H56V55Z" fill="#C39C28"/>
<path d="M58 55H56V57H58V55Z" fill="#E5B62E"/>
<path d="M60 55H58V57H60V55Z" fill="#E5B62E"/>
<path d="M62 55H60V57H62V55Z" fill="#E5B62E"/>
<path d="M64 55H62V57H64V55Z" fill="#E5B62E"/>
<path d="M2 57H0V59H2V57Z" fill="#E5B62E"/>
<path d="M4 57H2V59H4V57Z" fill="#E5B62E"/>
<path d="M6 57H4V59H6V57Z" fill="#E5B62E"/>
<path d="M8 57H6V59H8V57Z" fill="#E5B62E"/>
<path d="M10 57H8V59H10V57Z" fill="#E5B62E"/>
<path d="M12 57H10V59H12V57Z" fill="#C39C28"/>
<path d="M14 57H12V59H14V57Z" fill="#C39C28"/>
<path d="M16 57H14V59H16V57Z" fill="#C39C28"/>
<path d="M18 57H16V59H18V57Z" fill="#C39C28"/>
<path d="M20 57H18V59H20V57Z" fill="#C39C28"/>
<path d="M22 57H20V59H22V57Z" fill="#C39C28"/>
<path d="M24 57H22V59H24V57Z" fill="#C39C28"/>
<path d="M26 57H24V59H26V57Z" fill="#C39C28"/>
<path d="M28 57H26V59H28V57Z" fill="#C39C28"/>
<path d="M30 57H28V59H30V57Z" fill="#C39C28"/>
<path d="M32 57H30V59H32V57Z" fill="#C39C28"/>
<path d="M34 57H32V59H34V57Z" fill="#C39C28"/>
<path d="M36 57H34V59H36V57Z" fill="#C39C28"/>
<path d="M38 57H36V59H38V57Z" fill="#C39C28"/>
<path d="M40 57H38V59H40V57Z" fill="#C39C28"/>
<path d="M42 57H40V59H42V57Z" fill="#C39C28"/>
<path d="M44 57H42V59H44V57Z" fill="#C39C28"/>
<path d="M46 57H44V59H46V57Z" fill="#C39C28"/>
<path d="M48 57H46V59H48V57Z" fill="#C39C28"/>
<path d="M50 57H48V59H50V57Z" fill="#C39C28"/>
<path d="M52 57H50V59H52V57Z" fill="#C39C28"/>
<path d="M54 57H52V59H54V57Z" fill="#C39C28"/>
<path d="M56 57H54V59H56V57Z" fill="#E5B62E"/>
<path d="M58 57H56V59H58V57Z" fill="#E5B62E"/>
<path d="M60 57H58V59H60V57Z" fill="#E5B62E"/>
<path d="M62 57H60V59H62V57Z" fill="#E5B62E"/>
<path d="M64 57H62V59H64V57Z" fill="#E5B62E"/>
<path d="M2 59H0V61H2V59Z" fill="#E5B62E"/>
<path d="M4 59H2V61H4V59Z" fill="#E5B62E"/>
<path d="M6 59H4V61H6V59Z" fill="#E5B62E"/>
<path d="M8 59H6V61H8V59Z" fill="#E5B62E"/>
<path d="M10 59H8V61H10V59Z" fill="#E5B62E"/>
<path d="M12 59H10V61H12V59Z" fill="#E5B62E"/>
<path d="M14 59H12V61H14V59Z" fill="#E5B62E"/>
<path d="M16 59H14V61H16V59Z" fill="#E5B62E"/>
<path d="M18 59H16V61H18V59Z" fill="#E5B62E"/>
<path d="M20 59H18V61H20V59Z" fill="#E5B62E"/>
<path d="M22 59H20V61H22V59Z" fill="#E5B62E"/>
<path d="M24 59H22V61H24V59Z" fill="#E5B62E"/>
<path d="M26 59H24V61H26V59Z" fill="#E5B62E"/>
<path d="M28 59H26V61H28V59Z" fill="#E5B62E"/>
<path d="M30 59H28V61H30V59Z" fill="#E5B62E"/>
<path d="M32 59H30V61H32V59Z" fill="#E5B62E"/>
<path d="M34 59H32V61H34V59Z" fill="#E5B62E"/>
<path d="M36 59H34V61H36V59Z" fill="#E5B62E"/>
<path d="M38 59H36V61H38V59Z" fill="#E5B62E"/>
<path d="M40 59H38V61H40V59Z" fill="#E5B62E"/>
<path d="M42 59H40V61H42V59Z" fill="#E5B62E"/>
<path d="M44 59H42V61H44V59Z" fill="#E5B62E"/>
<path d="M46 59H44V61H46V59Z" fill="#E5B62E"/>
<path d="M48 59H46V61H48V59Z" fill="#E5B62E"/>
<path d="M50 59H48V61H50V59Z" fill="#E5B62E"/>
<path d="M52 59H50V61H52V59Z" fill="#E5B62E"/>
<path d="M54 59H52V61H54V59Z" fill="#E5B62E"/>
<path d="M56 59H54V61H56V59Z" fill="#E5B62E"/>
<path d="M58 59H56V61H58V59Z" fill="#E5B62E"/>
<path d="M60 59H58V61H60V59Z" fill="#E5B62E"/>
<path d="M62 59H60V61H62V59Z" fill="#E5B62E"/>
<path d="M64 59H62V61H64V59Z" fill="#E5B62E"/>
<path d="M2 61H0V63H2V61Z" fill="#E5B62E"/>
<path d="M4 61H2V63H4V61Z" fill="#E5B62E"/>
<path d="M6 61H4V63H6V61Z" fill="#E5B62E"/>
<path d="M8 61H6V63H8V61Z" fill="#E5B62E"/>
<path d="M10 61H8V63H10V61Z" fill="#E5B62E"/>
<path d="M12 61H10V63H12V61Z" fill="#E5B62E"/>
<path d="M14 61H12V63H14V61Z" fill="#E5B62E"/>
<path d="M16 61H14V63H16V61Z" fill="#E5B62E"/>
<path d="M18 61H16V63H18V61Z" fill="#E5B62E"/>
<path d="M20 61H18V63H20V61Z" fill="#E5B62E"/>
<path d="M22 61H20V63H22V61Z" fill="#E5B62E"/>
<path d="M24 61H22V63H24V61Z" fill="#E5B62E"/>
<path d="M26 61H24V63H26V61Z" fill="#E5B62E"/>
<path d="M28 61H26V63H28V61Z" fill="#E5B62E"/>
<path d="M30 61H28V63H30V61Z" fill="#E5B62E"/>
<path d="M32 61H30V63H32V61Z" fill="#E5B62E"/>
<path d="M34 61H32V63H34V61Z" fill="#E5B62E"/>
<path d="M36 61H34V63H36V61Z" fill="#E5B62E"/>
<path d="M38 61H36V63H38V61Z" fill="#E5B62E"/>
<path d="M40 61H38V63H40V61Z" fill="#E5B62E"/>
<path d="M42 61H40V63H42V61Z" fill="#E5B62E"/>
<path d="M44 61H42V63H44V61Z" fill="#E5B62E"/>
<path d="M46 61H44V63H46V61Z" fill="#E5B62E"/>
<path d="M48 61H46V63H48V61Z" fill="#E5B62E"/>
<path d="M50 61H48V63H50V61Z" fill="#E5B62E"/>
<path d="M52 61H50V63H52V61Z" fill="#E5B62E"/>
<path d="M54 61H52V63H54V61Z" fill="#E5B62E"/>
<path d="M56 61H54V63H56V61Z" fill="#E5B62E"/>
<path d="M58 61H56V63H58V61Z" fill="#E5B62E"/>
<path d="M60 61H58V63H60V61Z" fill="#E5B62E"/>
<path d="M62 61H60V63H62V61Z" fill="#E5B62E"/>
<path d="M64 61H62V63H64V61Z" fill="#E5B62E"/>
</svg>
