<svg width="300" height="100" viewBox="0 0 300 100" fill="none" xmlns="http://www.w3.org/2000/svg">
<path d="M31.25 0H25V6.25H31.25V0Z" fill="black"/>
<path d="M37.5 0H31.25V6.25H37.5V0Z" fill="black"/>
<path d="M43.75 0H37.5V6.25H43.75V0Z" fill="black"/>
<path d="M50 0H43.75V6.25H50V0Z" fill="black"/>
<path d="M56.25 0H50V6.25H56.25V0Z" fill="black"/>
<path d="M62.5 0H56.25V6.25H62.5V0Z" fill="black"/>
<path d="M68.75 0H62.5V6.25H68.75V0Z" fill="black"/>
<path d="M75 0H68.75V6.25H75V0Z" fill="black"/>
<path d="M81.25 0H75V6.25H81.25V0Z" fill="black"/>
<path d="M87.5 0H81.25V6.25H87.5V0Z" fill="black"/>
<path d="M93.75 0H87.5V6.25H93.75V0Z" fill="black"/>
<path d="M100 0H93.75V6.25H100V0Z" fill="black"/>
<path d="M106.25 0H100V6.25H106.25V0Z" fill="black"/>
<path d="M112.5 0H106.25V6.25H112.5V0Z" fill="black"/>
<path d="M118.75 0H112.5V6.25H118.75V0Z" fill="black"/>
<path d="M125 0H118.75V6.25H125V0Z" fill="black"/>
<path d="M131.25 0H125V6.25H131.25V0Z" fill="black"/>
<path d="M137.5 0H131.25V6.25H137.5V0Z" fill="black"/>
<path d="M143.75 0H137.5V6.25H143.75V0Z" fill="black"/>
<path d="M150 0H143.75V6.25H150V0Z" fill="black"/>
<path d="M156.25 0H150V6.25H156.25V0Z" fill="black"/>
<path d="M162.5 0H156.25V6.25H162.5V0Z" fill="black"/>
<path d="M168.75 0H162.5V6.25H168.75V0Z" fill="black"/>
<path d="M175 0H168.75V6.25H175V0Z" fill="black"/>
<path d="M181.25 0H175V6.25H181.25V0Z" fill="black"/>
<path d="M187.5 0H181.25V6.25H187.5V0Z" fill="black"/>
<path d="M193.75 0H187.5V6.25H193.75V0Z" fill="black"/>
<path d="M200 0H193.75V6.25H200V0Z" fill="black"/>
<path d="M206.25 0H200V6.25H206.25V0Z" fill="black"/>
<path d="M212.5 0H206.25V6.25H212.5V0Z" fill="black"/>
<path d="M218.75 0H212.5V6.25H218.75V0Z" fill="black"/>
<path d="M225 0H218.75V6.25H225V0Z" fill="black"/>
<path d="M231.25 0H225V6.25H231.25V0Z" fill="black"/>
<path d="M237.5 0H231.25V6.25H237.5V0Z" fill="black"/>
<path d="M243.75 0H237.5V6.25H243.75V0Z" fill="black"/>
<path d="M250 0H243.75V6.25H250V0Z" fill="black"/>
<path d="M256.25 0H250V6.25H256.25V0Z" fill="black"/>
<path d="M262.5 0H256.25V6.25H262.5V0Z" fill="black"/>
<path d="M268.75 0H262.5V6.25H268.75V0Z" fill="black"/>
<path d="M275 0H268.75V6.25H275V0Z" fill="black"/>
<path d="M18.75 6.25H12.5V12.5H18.75V6.25Z" fill="black"/>
<path d="M25 6.25H18.75V12.5H25V6.25Z" fill="black"/>
<path d="M31.25 6.25H25V12.5H31.25V6.25Z" fill="black"/>
<path d="M37.5 6.25H31.25V12.5H37.5V6.25Z" fill="#FFCA2E"/>
<path d="M43.75 6.25H37.5V12.5H43.75V6.25Z" fill="white"/>
<path d="M50 6.25H43.75V12.5H50V6.25Z" fill="white"/>
<path d="M56.25 6.25H50V12.5H56.25V6.25Z" fill="white"/>
<path d="M62.5 6.25H56.25V12.5H62.5V6.25Z" fill="white"/>
<path d="M68.75 6.25H62.5V12.5H68.75V6.25Z" fill="white"/>
<path d="M75 6.25H68.75V12.5H75V6.25Z" fill="white"/>
<path d="M81.25 6.25H75V12.5H81.25V6.25Z" fill="#FFCA2E"/>
<path d="M87.5 6.25H81.25V12.5H87.5V6.25Z" fill="white"/>
<path d="M93.75 6.25H87.5V12.5H93.75V6.25Z" fill="white"/>
<path d="M100 6.25H93.75V12.5H100V6.25Z" fill="#FFCA2E"/>
<path d="M106.25 6.25H100V12.5H106.25V6.25Z" fill="white"/>
<path d="M112.5 6.25H106.25V12.5H112.5V6.25Z" fill="#FFCA2E"/>
<path d="M118.75 6.25H112.5V12.5H118.75V6.25Z" fill="#FFCA2E"/>
<path d="M125 6.25H118.75V12.5H125V6.25Z" fill="#FFCA2E"/>
<path d="M131.25 6.25H125V12.5H131.25V6.25Z" fill="#FFCA2E"/>
<path d="M137.5 6.25H131.25V12.5H137.5V6.25Z" fill="#FFCA2E"/>
<path d="M143.75 6.25H137.5V12.5H143.75V6.25Z" fill="#FFCA2E"/>
<path d="M150 6.25H143.75V12.5H150V6.25Z" fill="#FFCA2E"/>
<path d="M156.25 6.25H150V12.5H156.25V6.25Z" fill="#FFCA2E"/>
<path d="M162.5 6.25H156.25V12.5H162.5V6.25Z" fill="#FFCA2E"/>
<path d="M168.75 6.25H162.5V12.5H168.75V6.25Z" fill="#FFCA2E"/>
<path d="M175 6.25H168.75V12.5H175V6.25Z" fill="#FFCA2E"/>
<path d="M181.25 6.25H175V12.5H181.25V6.25Z" fill="white"/>
<path d="M187.5 6.25H181.25V12.5H187.5V6.25Z" fill="white"/>
<path d="M193.75 6.25H187.5V12.5H193.75V6.25Z" fill="#FFCA2E"/>
<path d="M200 6.25H193.75V12.5H200V6.25Z" fill="#FFCA2E"/>
<path d="M206.25 6.25H200V12.5H206.25V6.25Z" fill="white"/>
<path d="M212.5 6.25H206.25V12.5H212.5V6.25Z" fill="#FFCA2E"/>
<path d="M218.75 6.25H212.5V12.5H218.75V6.25Z" fill="#FFCA2E"/>
<path d="M225 6.25H218.75V12.5H225V6.25Z" fill="#FFCA2E"/>
<path d="M231.25 6.25H225V12.5H231.25V6.25Z" fill="#FFCA2E"/>
<path d="M237.5 6.25H231.25V12.5H237.5V6.25Z" fill="#FFCA2E"/>
<path d="M243.75 6.25H237.5V12.5H243.75V6.25Z" fill="#FFCA2E"/>
<path d="M250 6.25H243.75V12.5H250V6.25Z" fill="#FFCA2E"/>
<path d="M256.25 6.25H250V12.5H256.25V6.25Z" fill="#FFCA2E"/>
<path d="M262.5 6.25H256.25V12.5H262.5V6.25Z" fill="#FFCA2E"/>
<path d="M268.75 6.25H262.5V12.5H268.75V6.25Z" fill="#FFCA2E"/>
<path d="M275 6.25H268.75V12.5H275V6.25Z" fill="black"/>
<path d="M281.25 6.25H275V12.5H281.25V6.25Z" fill="black"/>
<path d="M287.5 6.25H281.25V12.5H287.5V6.25Z" fill="black"/>
<path d="M12.5 12.5H6.25V18.75H12.5V12.5Z" fill="black"/>
<path d="M18.75 12.5H12.5V18.75H18.75V12.5Z" fill="black"/>
<path d="M25 12.5H18.75V18.75H25V12.5Z" fill="#FFCA2E"/>
<path d="M31.25 12.5H25V18.75H31.25V12.5Z" fill="#FFCA2E"/>
<path d="M37.5 12.5H31.25V18.75H37.5V12.5Z" fill="white"/>
<path d="M43.75 12.5H37.5V18.75H43.75V12.5Z" fill="#E5B62E"/>
<path d="M50 12.5H43.75V18.75H50V12.5Z" fill="#E5B62E"/>
<path d="M56.25 12.5H50V18.75H56.25V12.5Z" fill="#E5B62E"/>
<path d="M62.5 12.5H56.25V18.75H62.5V12.5Z" fill="#E5B62E"/>
<path d="M68.75 12.5H62.5V18.75H68.75V12.5Z" fill="#E5B62E"/>
<path d="M75 12.5H68.75V18.75H75V12.5Z" fill="#E5B62E"/>
<path d="M81.25 12.5H75V18.75H81.25V12.5Z" fill="#E5B62E"/>
<path d="M87.5 12.5H81.25V18.75H87.5V12.5Z" fill="#E5B62E"/>
<path d="M93.75 12.5H87.5V18.75H93.75V12.5Z" fill="#E5B62E"/>
<path d="M100 12.5H93.75V18.75H100V12.5Z" fill="#E5B62E"/>
<path d="M106.25 12.5H100V18.75H106.25V12.5Z" fill="#E5B62E"/>
<path d="M112.5 12.5H106.25V18.75H112.5V12.5Z" fill="#E5B62E"/>
<path d="M118.75 12.5H112.5V18.75H118.75V12.5Z" fill="#E5B62E"/>
<path d="M125 12.5H118.75V18.75H125V12.5Z" fill="#E5B62E"/>
<path d="M131.25 12.5H125V18.75H131.25V12.5Z" fill="#E5B62E"/>
<path d="M137.5 12.5H131.25V18.75H137.5V12.5Z" fill="#E5B62E"/>
<path d="M143.75 12.5H137.5V18.75H143.75V12.5Z" fill="#E5B62E"/>
<path d="M150 12.5H143.75V18.75H150V12.5Z" fill="#E5B62E"/>
<path d="M156.25 12.5H150V18.75H156.25V12.5Z" fill="#E5B62E"/>
<path d="M162.5 12.5H156.25V18.75H162.5V12.5Z" fill="#E5B62E"/>
<path d="M168.75 12.5H162.5V18.75H168.75V12.5Z" fill="#E5B62E"/>
<path d="M175 12.5H168.75V18.75H175V12.5Z" fill="#E5B62E"/>
<path d="M181.25 12.5H175V18.75H181.25V12.5Z" fill="#E5B62E"/>
<path d="M187.5 12.5H181.25V18.75H187.5V12.5Z" fill="#E5B62E"/>
<path d="M193.75 12.5H187.5V18.75H193.75V12.5Z" fill="#E5B62E"/>
<path d="M200 12.5H193.75V18.75H200V12.5Z" fill="#E5B62E"/>
<path d="M206.25 12.5H200V18.75H206.25V12.5Z" fill="#E5B62E"/>
<path d="M212.5 12.5H206.25V18.75H212.5V12.5Z" fill="#E5B62E"/>
<path d="M218.75 12.5H212.5V18.75H218.75V12.5Z" fill="#E5B62E"/>
<path d="M225 12.5H218.75V18.75H225V12.5Z" fill="#E5B62E"/>
<path d="M231.25 12.5H225V18.75H231.25V12.5Z" fill="#E5B62E"/>
<path d="M237.5 12.5H231.25V18.75H237.5V12.5Z" fill="#E5B62E"/>
<path d="M243.75 12.5H237.5V18.75H243.75V12.5Z" fill="#E5B62E"/>
<path d="M250 12.5H243.75V18.75H250V12.5Z" fill="#E5B62E"/>
<path d="M256.25 12.5H250V18.75H256.25V12.5Z" fill="#E5B62E"/>
<path d="M262.5 12.5H256.25V18.75H262.5V12.5Z" fill="#E5B62E"/>
<path d="M268.75 12.5H262.5V18.75H268.75V12.5Z" fill="#FFCA2E"/>
<path d="M275 12.5H268.75V18.75H275V12.5Z" fill="#FFCA2E"/>
<path d="M281.25 12.5H275V18.75H281.25V12.5Z" fill="#FFCA2E"/>
<path d="M287.5 12.5H281.25V18.75H287.5V12.5Z" fill="black"/>
<path d="M293.75 12.5H287.5V18.75H293.75V12.5Z" fill="black"/>
<path d="M12.5 18.75H6.25V25H12.5V18.75Z" fill="black"/>
<path d="M18.75 18.75H12.5V25H18.75V18.75Z" fill="#FFCA2E"/>
<path d="M25 18.75H18.75V25H25V18.75Z" fill="#FFCA2E"/>
<path d="M31.25 18.75H25V25H31.25V18.75Z" fill="#E5B62E"/>
<path d="M37.5 18.75H31.25V25H37.5V18.75Z" fill="#E5B62E"/>
<path d="M43.75 18.75H37.5V25H43.75V18.75Z" fill="#E5B62E"/>
<path d="M50 18.75H43.75V25H50V18.75Z" fill="#E5B62E"/>
<path d="M56.25 18.75H50V25H56.25V18.75Z" fill="#E5B62E"/>
<path d="M62.5 18.75H56.25V25H62.5V18.75Z" fill="#E5B62E"/>
<path d="M68.75 18.75H62.5V25H68.75V18.75Z" fill="#E5B62E"/>
<path d="M75 18.75H68.75V25H75V18.75Z" fill="#E5B62E"/>
<path d="M81.25 18.75H75V25H81.25V18.75Z" fill="#E5B62E"/>
<path d="M87.5 18.75H81.25V25H87.5V18.75Z" fill="#E5B62E"/>
<path d="M93.75 18.75H87.5V25H93.75V18.75Z" fill="#E5B62E"/>
<path d="M100 18.75H93.75V25H100V18.75Z" fill="#E5B62E"/>
<path d="M106.25 18.75H100V25H106.25V18.75Z" fill="#E5B62E"/>
<path d="M112.5 18.75H106.25V25H112.5V18.75Z" fill="#E5B62E"/>
<path d="M118.75 18.75H112.5V25H118.75V18.75Z" fill="#E5B62E"/>
<path d="M125 18.75H118.75V25H125V18.75Z" fill="#E5B62E"/>
<path d="M131.25 18.75H125V25H131.25V18.75Z" fill="#E5B62E"/>
<path d="M137.5 18.75H131.25V25H137.5V18.75Z" fill="#E5B62E"/>
<path d="M143.75 18.75H137.5V25H143.75V18.75Z" fill="#E5B62E"/>
<path d="M150 18.75H143.75V25H150V18.75Z" fill="#E5B62E"/>
<path d="M156.25 18.75H150V25H156.25V18.75Z" fill="#E5B62E"/>
<path d="M162.5 18.75H156.25V25H162.5V18.75Z" fill="#E5B62E"/>
<path d="M168.75 18.75H162.5V25H168.75V18.75Z" fill="#E5B62E"/>
<path d="M175 18.75H168.75V25H175V18.75Z" fill="#E5B62E"/>
<path d="M181.25 18.75H175V25H181.25V18.75Z" fill="#E5B62E"/>
<path d="M187.5 18.75H181.25V25H187.5V18.75Z" fill="#E5B62E"/>
<path d="M193.75 18.75H187.5V25H193.75V18.75Z" fill="#E5B62E"/>
<path d="M200 18.75H193.75V25H200V18.75Z" fill="#E5B62E"/>
<path d="M206.25 18.75H200V25H206.25V18.75Z" fill="#E5B62E"/>
<path d="M212.5 18.75H206.25V25H212.5V18.75Z" fill="#E5B62E"/>
<path d="M218.75 18.75H212.5V25H218.75V18.75Z" fill="#E5B62E"/>
<path d="M225 18.75H218.75V25H225V18.75Z" fill="#E5B62E"/>
<path d="M231.25 18.75H225V25H231.25V18.75Z" fill="#E5B62E"/>
<path d="M237.5 18.75H231.25V25H237.5V18.75Z" fill="#E5B62E"/>
<path d="M243.75 18.75H237.5V25H243.75V18.75Z" fill="#E5B62E"/>
<path d="M250 18.75H243.75V25H250V18.75Z" fill="#E5B62E"/>
<path d="M256.25 18.75H250V25H256.25V18.75Z" fill="#E5B62E"/>
<path d="M262.5 18.75H256.25V25H262.5V18.75Z" fill="#E5B62E"/>
<path d="M268.75 18.75H262.5V25H268.75V18.75Z" fill="#E5B62E"/>
<path d="M275 18.75H268.75V25H275V18.75Z" fill="#E5B62E"/>
<path d="M281.25 18.75H275V25H281.25V18.75Z" fill="#FFCA2E"/>
<path d="M287.5 18.75H281.25V25H287.5V18.75Z" fill="#FFCA2E"/>
<path d="M293.75 18.75H287.5V25H293.75V18.75Z" fill="black"/>
<path d="M6.25 25H0V31.25H6.25V25Z" fill="black"/>
<path d="M12.5 25H6.25V31.25H12.5V25Z" fill="black"/>
<path d="M18.75 25H12.5V31.25H18.75V25Z" fill="#FFCA2E"/>
<path d="M25 25H18.75V31.25H25V25Z" fill="#E5B62E"/>
<path d="M31.25 25H25V31.25H31.25V25Z" fill="white"/>
<path d="M37.5 25H31.25V31.25H37.5V25Z" fill="#E5B62E"/>
<path d="M43.75 25H37.5V31.25H43.75V25Z" fill="#E5B62E"/>
<path d="M50 25H43.75V31.25H50V25Z" fill="#E5B62E"/>
<path d="M56.25 25H50V31.25H56.25V25Z" fill="#E5B62E"/>
<path d="M62.5 25H56.25V31.25H62.5V25Z" fill="#E5B62E"/>
<path d="M68.75 25H62.5V31.25H68.75V25Z" fill="#E5B62E"/>
<path d="M75 25H68.75V31.25H75V25Z" fill="#E5B62E"/>
<path d="M81.25 25H75V31.25H81.25V25Z" fill="#E5B62E"/>
<path d="M87.5 25H81.25V31.25H87.5V25Z" fill="#E5B62E"/>
<path d="M93.75 25H87.5V31.25H93.75V25Z" fill="#E5B62E"/>
<path d="M100 25H93.75V31.25H100V25Z" fill="#E5B62E"/>
<path d="M106.25 25H100V31.25H106.25V25Z" fill="#E5B62E"/>
<path d="M112.5 25H106.25V31.25H112.5V25Z" fill="#E5B62E"/>
<path d="M118.75 25H112.5V31.25H118.75V25Z" fill="#E5B62E"/>
<path d="M125 25H118.75V31.25H125V25Z" fill="#E5B62E"/>
<path d="M131.25 25H125V31.25H131.25V25Z" fill="#E5B62E"/>
<path d="M137.5 25H131.25V31.25H137.5V25Z" fill="#E5B62E"/>
<path d="M143.75 25H137.5V31.25H143.75V25Z" fill="#E5B62E"/>
<path d="M150 25H143.75V31.25H150V25Z" fill="#E5B62E"/>
<path d="M156.25 25H150V31.25H156.25V25Z" fill="#E5B62E"/>
<path d="M162.5 25H156.25V31.25H162.5V25Z" fill="#E5B62E"/>
<path d="M168.75 25H162.5V31.25H168.75V25Z" fill="#E5B62E"/>
<path d="M175 25H168.75V31.25H175V25Z" fill="#E5B62E"/>
<path d="M181.25 25H175V31.25H181.25V25Z" fill="#E5B62E"/>
<path d="M187.5 25H181.25V31.25H187.5V25Z" fill="#E5B62E"/>
<path d="M193.75 25H187.5V31.25H193.75V25Z" fill="#E5B62E"/>
<path d="M200 25H193.75V31.25H200V25Z" fill="#E5B62E"/>
<path d="M206.25 25H200V31.25H206.25V25Z" fill="#E5B62E"/>
<path d="M212.5 25H206.25V31.25H212.5V25Z" fill="#E5B62E"/>
<path d="M218.75 25H212.5V31.25H218.75V25Z" fill="#E5B62E"/>
<path d="M225 25H218.75V31.25H225V25Z" fill="#E5B62E"/>
<path d="M231.25 25H225V31.25H231.25V25Z" fill="#E5B62E"/>
<path d="M237.5 25H231.25V31.25H237.5V25Z" fill="#E5B62E"/>
<path d="M243.75 25H237.5V31.25H243.75V25Z" fill="#E5B62E"/>
<path d="M250 25H243.75V31.25H250V25Z" fill="#E5B62E"/>
<path d="M256.25 25H250V31.25H256.25V25Z" fill="#E5B62E"/>
<path d="M262.5 25H256.25V31.25H262.5V25Z" fill="#E5B62E"/>
<path d="M268.75 25H262.5V31.25H268.75V25Z" fill="#E5B62E"/>
<path d="M275 25H268.75V31.25H275V25Z" fill="#E5B62E"/>
<path d="M281.25 25H275V31.25H281.25V25Z" fill="#E5B62E"/>
<path d="M287.5 25H281.25V31.25H287.5V25Z" fill="#FFCA2E"/>
<path d="M293.75 25H287.5V31.25H293.75V25Z" fill="black"/>
<path d="M300 25H293.75V31.25H300V25Z" fill="black"/>
<path d="M6.25 31.25H0V37.5H6.25V31.25Z" fill="black"/>
<path d="M12.5 31.25H6.25V37.5H12.5V31.25Z" fill="#C39C28"/>
<path d="M18.75 31.25H12.5V37.5H18.75V31.25Z" fill="#E5B62E"/>
<path d="M25 31.25H18.75V37.5H25V31.25Z" fill="#E5B62E"/>
<path d="M31.25 31.25H25V37.5H31.25V31.25Z" fill="#E5B62E"/>
<path d="M37.5 31.25H31.25V37.5H37.5V31.25Z" fill="#E5B62E"/>
<path d="M43.75 31.25H37.5V37.5H43.75V31.25Z" fill="#E5B62E"/>
<path d="M50 31.25H43.75V37.5H50V31.25Z" fill="#E5B62E"/>
<path d="M56.25 31.25H50V37.5H56.25V31.25Z" fill="#E5B62E"/>
<path d="M62.5 31.25H56.25V37.5H62.5V31.25Z" fill="#E5B62E"/>
<path d="M68.75 31.25H62.5V37.5H68.75V31.25Z" fill="#E5B62E"/>
<path d="M75 31.25H68.75V37.5H75V31.25Z" fill="#E5B62E"/>
<path d="M81.25 31.25H75V37.5H81.25V31.25Z" fill="#E5B62E"/>
<path d="M87.5 31.25H81.25V37.5H87.5V31.25Z" fill="#E5B62E"/>
<path d="M93.75 31.25H87.5V37.5H93.75V31.25Z" fill="#E5B62E"/>
<path d="M100 31.25H93.75V37.5H100V31.25Z" fill="#E5B62E"/>
<path d="M106.25 31.25H100V37.5H106.25V31.25Z" fill="#E5B62E"/>
<path d="M112.5 31.25H106.25V37.5H112.5V31.25Z" fill="#E5B62E"/>
<path d="M118.75 31.25H112.5V37.5H118.75V31.25Z" fill="#E5B62E"/>
<path d="M125 31.25H118.75V37.5H125V31.25Z" fill="#E5B62E"/>
<path d="M131.25 31.25H125V37.5H131.25V31.25Z" fill="#E5B62E"/>
<path d="M137.5 31.25H131.25V37.5H137.5V31.25Z" fill="#E5B62E"/>
<path d="M143.75 31.25H137.5V37.5H143.75V31.25Z" fill="#E5B62E"/>
<path d="M150 31.25H143.75V37.5H150V31.25Z" fill="#E5B62E"/>
<path d="M156.25 31.25H150V37.5H156.25V31.25Z" fill="#E5B62E"/>
<path d="M162.5 31.25H156.25V37.5H162.5V31.25Z" fill="#E5B62E"/>
<path d="M168.75 31.25H162.5V37.5H168.75V31.25Z" fill="#E5B62E"/>
<path d="M175 31.25H168.75V37.5H175V31.25Z" fill="#E5B62E"/>
<path d="M181.25 31.25H175V37.5H181.25V31.25Z" fill="#E5B62E"/>
<path d="M187.5 31.25H181.25V37.5H187.5V31.25Z" fill="#E5B62E"/>
<path d="M193.75 31.25H187.5V37.5H193.75V31.25Z" fill="#E5B62E"/>
<path d="M200 31.25H193.75V37.5H200V31.25Z" fill="#E5B62E"/>
<path d="M206.25 31.25H200V37.5H206.25V31.25Z" fill="#E5B62E"/>
<path d="M212.5 31.25H206.25V37.5H212.5V31.25Z" fill="#E5B62E"/>
<path d="M218.75 31.25H212.5V37.5H218.75V31.25Z" fill="#E5B62E"/>
<path d="M225 31.25H218.75V37.5H225V31.25Z" fill="#E5B62E"/>
<path d="M231.25 31.25H225V37.5H231.25V31.25Z" fill="#E5B62E"/>
<path d="M237.5 31.25H231.25V37.5H237.5V31.25Z" fill="#E5B62E"/>
<path d="M243.75 31.25H237.5V37.5H243.75V31.25Z" fill="#E5B62E"/>
<path d="M250 31.25H243.75V37.5H250V31.25Z" fill="#E5B62E"/>
<path d="M256.25 31.25H250V37.5H256.25V31.25Z" fill="#E5B62E"/>
<path d="M262.5 31.25H256.25V37.5H262.5V31.25Z" fill="#E5B62E"/>
<path d="M268.75 31.25H262.5V37.5H268.75V31.25Z" fill="#E5B62E"/>
<path d="M275 31.25H268.75V37.5H275V31.25Z" fill="#E5B62E"/>
<path d="M281.25 31.25H275V37.5H281.25V31.25Z" fill="#E5B62E"/>
<path d="M287.5 31.25H281.25V37.5H287.5V31.25Z" fill="#E5B62E"/>
<path d="M293.75 31.25H287.5V37.5H293.75V31.25Z" fill="#C39C28"/>
<path d="M300 31.25H293.75V37.5H300V31.25Z" fill="black"/>
<path d="M6.25 37.5H0V43.75H6.25V37.5Z" fill="black"/>
<path d="M12.5 37.5H6.25V43.75H12.5V37.5Z" fill="#C39C28"/>
<path d="M18.75 37.5H12.5V43.75H18.75V37.5Z" fill="#E5B62E"/>
<path d="M25 37.5H18.75V43.75H25V37.5Z" fill="#E5B62E"/>
<path d="M31.25 37.5H25V43.75H31.25V37.5Z" fill="#E5B62E"/>
<path d="M37.5 37.5H31.25V43.75H37.5V37.5Z" fill="#E5B62E"/>
<path d="M43.75 37.5H37.5V43.75H43.75V37.5Z" fill="#E5B62E"/>
<path d="M50 37.5H43.75V43.75H50V37.5Z" fill="#E5B62E"/>
<path d="M56.25 37.5H50V43.75H56.25V37.5Z" fill="#E5B62E"/>
<path d="M62.5 37.5H56.25V43.75H62.5V37.5Z" fill="#E5B62E"/>
<path d="M68.75 37.5H62.5V43.75H68.75V37.5Z" fill="#E5B62E"/>
<path d="M75 37.5H68.75V43.75H75V37.5Z" fill="#E5B62E"/>
<path d="M81.25 37.5H75V43.75H81.25V37.5Z" fill="#E5B62E"/>
<path d="M87.5 37.5H81.25V43.75H87.5V37.5Z" fill="#E5B62E"/>
<path d="M93.75 37.5H87.5V43.75H93.75V37.5Z" fill="#E5B62E"/>
<path d="M100 37.5H93.75V43.75H100V37.5Z" fill="#E5B62E"/>
<path d="M106.25 37.5H100V43.75H106.25V37.5Z" fill="#E5B62E"/>
<path d="M112.5 37.5H106.25V43.75H112.5V37.5Z" fill="#E5B62E"/>
<path d="M118.75 37.5H112.5V43.75H118.75V37.5Z" fill="#E5B62E"/>
<path d="M125 37.5H118.75V43.75H125V37.5Z" fill="#E5B62E"/>
<path d="M131.25 37.5H125V43.75H131.25V37.5Z" fill="#E5B62E"/>
<path d="M137.5 37.5H131.25V43.75H137.5V37.5Z" fill="#E5B62E"/>
<path d="M143.75 37.5H137.5V43.75H143.75V37.5Z" fill="#E5B62E"/>
<path d="M150 37.5H143.75V43.75H150V37.5Z" fill="#E5B62E"/>
<path d="M156.25 37.5H150V43.75H156.25V37.5Z" fill="#E5B62E"/>
<path d="M162.5 37.5H156.25V43.75H162.5V37.5Z" fill="#E5B62E"/>
<path d="M168.75 37.5H162.5V43.75H168.75V37.5Z" fill="#E5B62E"/>
<path d="M175 37.5H168.75V43.75H175V37.5Z" fill="#E5B62E"/>
<path d="M181.25 37.5H175V43.75H181.25V37.5Z" fill="#E5B62E"/>
<path d="M187.5 37.5H181.25V43.75H187.5V37.5Z" fill="#E5B62E"/>
<path d="M193.75 37.5H187.5V43.75H193.75V37.5Z" fill="#E5B62E"/>
<path d="M200 37.5H193.75V43.75H200V37.5Z" fill="#E5B62E"/>
<path d="M206.25 37.5H200V43.75H206.25V37.5Z" fill="#E5B62E"/>
<path d="M212.5 37.5H206.25V43.75H212.5V37.5Z" fill="#E5B62E"/>
<path d="M218.75 37.5H212.5V43.75H218.75V37.5Z" fill="#E5B62E"/>
<path d="M225 37.5H218.75V43.75H225V37.5Z" fill="#E5B62E"/>
<path d="M231.25 37.5H225V43.75H231.25V37.5Z" fill="#E5B62E"/>
<path d="M237.5 37.5H231.25V43.75H237.5V37.5Z" fill="#E5B62E"/>
<path d="M243.75 37.5H237.5V43.75H243.75V37.5Z" fill="#E5B62E"/>
<path d="M250 37.5H243.75V43.75H250V37.5Z" fill="#E5B62E"/>
<path d="M256.25 37.5H250V43.75H256.25V37.5Z" fill="#E5B62E"/>
<path d="M262.5 37.5H256.25V43.75H262.5V37.5Z" fill="#E5B62E"/>
<path d="M268.75 37.5H262.5V43.75H268.75V37.5Z" fill="#E5B62E"/>
<path d="M275 37.5H268.75V43.75H275V37.5Z" fill="#E5B62E"/>
<path d="M281.25 37.5H275V43.75H281.25V37.5Z" fill="#E5B62E"/>
<path d="M287.5 37.5H281.25V43.75H287.5V37.5Z" fill="#E5B62E"/>
<path d="M293.75 37.5H287.5V43.75H293.75V37.5Z" fill="#C39C28"/>
<path d="M300 37.5H293.75V43.75H300V37.5Z" fill="black"/>
<path d="M6.25 43.75H0V50H6.25V43.75Z" fill="black"/>
<path d="M12.5 43.75H6.25V50H12.5V43.75Z" fill="white"/>
<path d="M18.75 43.75H12.5V50H18.75V43.75Z" fill="#E5B62E"/>
<path d="M25 43.75H18.75V50H25V43.75Z" fill="#E5B62E"/>
<path d="M31.25 43.75H25V50H31.25V43.75Z" fill="#E5B62E"/>
<path d="M37.5 43.75H31.25V50H37.5V43.75Z" fill="#E5B62E"/>
<path d="M43.75 43.75H37.5V50H43.75V43.75Z" fill="#E5B62E"/>
<path d="M50 43.75H43.75V50H50V43.75Z" fill="#E5B62E"/>
<path d="M56.25 43.75H50V50H56.25V43.75Z" fill="#E5B62E"/>
<path d="M62.5 43.75H56.25V50H62.5V43.75Z" fill="#E5B62E"/>
<path d="M68.75 43.75H62.5V50H68.75V43.75Z" fill="#E5B62E"/>
<path d="M75 43.75H68.75V50H75V43.75Z" fill="#E5B62E"/>
<path d="M81.25 43.75H75V50H81.25V43.75Z" fill="#E5B62E"/>
<path d="M87.5 43.75H81.25V50H87.5V43.75Z" fill="#E5B62E"/>
<path d="M93.75 43.75H87.5V50H93.75V43.75Z" fill="#E5B62E"/>
<path d="M100 43.75H93.75V50H100V43.75Z" fill="#E5B62E"/>
<path d="M106.25 43.75H100V50H106.25V43.75Z" fill="#E5B62E"/>
<path d="M112.5 43.75H106.25V50H112.5V43.75Z" fill="#E5B62E"/>
<path d="M118.75 43.75H112.5V50H118.75V43.75Z" fill="#E5B62E"/>
<path d="M125 43.75H118.75V50H125V43.75Z" fill="#E5B62E"/>
<path d="M131.25 43.75H125V50H131.25V43.75Z" fill="#E5B62E"/>
<path d="M137.5 43.75H131.25V50H137.5V43.75Z" fill="#E5B62E"/>
<path d="M143.75 43.75H137.5V50H143.75V43.75Z" fill="#E5B62E"/>
<path d="M150 43.75H143.75V50H150V43.75Z" fill="#E5B62E"/>
<path d="M156.25 43.75H150V50H156.25V43.75Z" fill="#E5B62E"/>
<path d="M162.5 43.75H156.25V50H162.5V43.75Z" fill="#E5B62E"/>
<path d="M168.75 43.75H162.5V50H168.75V43.75Z" fill="#E5B62E"/>
<path d="M175 43.75H168.75V50H175V43.75Z" fill="#E5B62E"/>
<path d="M181.25 43.75H175V50H181.25V43.75Z" fill="#E5B62E"/>
<path d="M187.5 43.75H181.25V50H187.5V43.75Z" fill="#E5B62E"/>
<path d="M193.75 43.75H187.5V50H193.75V43.75Z" fill="#E5B62E"/>
<path d="M200 43.75H193.75V50H200V43.75Z" fill="#E5B62E"/>
<path d="M206.25 43.75H200V50H206.25V43.75Z" fill="#E5B62E"/>
<path d="M212.5 43.75H206.25V50H212.5V43.75Z" fill="#E5B62E"/>
<path d="M218.75 43.75H212.5V50H218.75V43.75Z" fill="#E5B62E"/>
<path d="M225 43.75H218.75V50H225V43.75Z" fill="#E5B62E"/>
<path d="M231.25 43.75H225V50H231.25V43.75Z" fill="#E5B62E"/>
<path d="M237.5 43.75H231.25V50H237.5V43.75Z" fill="#E5B62E"/>
<path d="M243.75 43.75H237.5V50H243.75V43.75Z" fill="#E5B62E"/>
<path d="M250 43.75H243.75V50H250V43.75Z" fill="#E5B62E"/>
<path d="M256.25 43.75H250V50H256.25V43.75Z" fill="#E5B62E"/>
<path d="M262.5 43.75H256.25V50H262.5V43.75Z" fill="#E5B62E"/>
<path d="M268.75 43.75H262.5V50H268.75V43.75Z" fill="#E5B62E"/>
<path d="M275 43.75H268.75V50H275V43.75Z" fill="#E5B62E"/>
<path d="M281.25 43.75H275V50H281.25V43.75Z" fill="#E5B62E"/>
<path d="M287.5 43.75H281.25V50H287.5V43.75Z" fill="#E5B62E"/>
<path d="M293.75 43.75H287.5V50H293.75V43.75Z" fill="#C39C28"/>
<path d="M300 43.75H293.75V50H300V43.75Z" fill="black"/>
<path d="M6.25 50H0V56.25H6.25V50Z" fill="black"/>
<path d="M12.5 50H6.25V56.25H12.5V50Z" fill="#C39C28"/>
<path d="M18.75 50H12.5V56.25H18.75V50Z" fill="#E5B62E"/>
<path d="M25 50H18.75V56.25H25V50Z" fill="#E5B62E"/>
<path d="M31.25 50H25V56.25H31.25V50Z" fill="#E5B62E"/>
<path d="M37.5 50H31.25V56.25H37.5V50Z" fill="#E5B62E"/>
<path d="M43.75 50H37.5V56.25H43.75V50Z" fill="#E5B62E"/>
<path d="M50 50H43.75V56.25H50V50Z" fill="#E5B62E"/>
<path d="M56.25 50H50V56.25H56.25V50Z" fill="#E5B62E"/>
<path d="M62.5 50H56.25V56.25H62.5V50Z" fill="#E5B62E"/>
<path d="M68.75 50H62.5V56.25H68.75V50Z" fill="#E5B62E"/>
<path d="M75 50H68.75V56.25H75V50Z" fill="#E5B62E"/>
<path d="M81.25 50H75V56.25H81.25V50Z" fill="#E5B62E"/>
<path d="M87.5 50H81.25V56.25H87.5V50Z" fill="#E5B62E"/>
<path d="M93.75 50H87.5V56.25H93.75V50Z" fill="#E5B62E"/>
<path d="M100 50H93.75V56.25H100V50Z" fill="#E5B62E"/>
<path d="M106.25 50H100V56.25H106.25V50Z" fill="#E5B62E"/>
<path d="M112.5 50H106.25V56.25H112.5V50Z" fill="#E5B62E"/>
<path d="M118.75 50H112.5V56.25H118.75V50Z" fill="#E5B62E"/>
<path d="M125 50H118.75V56.25H125V50Z" fill="#E5B62E"/>
<path d="M131.25 50H125V56.25H131.25V50Z" fill="#E5B62E"/>
<path d="M137.5 50H131.25V56.25H137.5V50Z" fill="#E5B62E"/>
<path d="M143.75 50H137.5V56.25H143.75V50Z" fill="#E5B62E"/>
<path d="M150 50H143.75V56.25H150V50Z" fill="#E5B62E"/>
<path d="M156.25 50H150V56.25H156.25V50Z" fill="#E5B62E"/>
<path d="M162.5 50H156.25V56.25H162.5V50Z" fill="#E5B62E"/>
<path d="M168.75 50H162.5V56.25H168.75V50Z" fill="#E5B62E"/>
<path d="M175 50H168.75V56.25H175V50Z" fill="#E5B62E"/>
<path d="M181.25 50H175V56.25H181.25V50Z" fill="#E5B62E"/>
<path d="M187.5 50H181.25V56.25H187.5V50Z" fill="#E5B62E"/>
<path d="M193.75 50H187.5V56.25H193.75V50Z" fill="#E5B62E"/>
<path d="M200 50H193.75V56.25H200V50Z" fill="#E5B62E"/>
<path d="M206.25 50H200V56.25H206.25V50Z" fill="#E5B62E"/>
<path d="M212.5 50H206.25V56.25H212.5V50Z" fill="#E5B62E"/>
<path d="M218.75 50H212.5V56.25H218.75V50Z" fill="#E5B62E"/>
<path d="M225 50H218.75V56.25H225V50Z" fill="#E5B62E"/>
<path d="M231.25 50H225V56.25H231.25V50Z" fill="#E5B62E"/>
<path d="M237.5 50H231.25V56.25H237.5V50Z" fill="#E5B62E"/>
<path d="M243.75 50H237.5V56.25H243.75V50Z" fill="#E5B62E"/>
<path d="M250 50H243.75V56.25H250V50Z" fill="#E5B62E"/>
<path d="M256.25 50H250V56.25H256.25V50Z" fill="#E5B62E"/>
<path d="M262.5 50H256.25V56.25H262.5V50Z" fill="#E5B62E"/>
<path d="M268.75 50H262.5V56.25H268.75V50Z" fill="#E5B62E"/>
<path d="M275 50H268.75V56.25H275V50Z" fill="#E5B62E"/>
<path d="M281.25 50H275V56.25H281.25V50Z" fill="#E5B62E"/>
<path d="M287.5 50H281.25V56.25H287.5V50Z" fill="#E5B62E"/>
<path d="M293.75 50H287.5V56.25H293.75V50Z" fill="#C39C28"/>
<path d="M300 50H293.75V56.25H300V50Z" fill="black"/>
<path d="M6.25 56.25H0V62.5H6.25V56.25Z" fill="black"/>
<path d="M12.5 56.25H6.25V62.5H12.5V56.25Z" fill="white"/>
<path d="M18.75 56.25H12.5V62.5H18.75V56.25Z" fill="#E5B62E"/>
<path d="M25 56.25H18.75V62.5H25V56.25Z" fill="#E5B62E"/>
<path d="M31.25 56.25H25V62.5H31.25V56.25Z" fill="#E5B62E"/>
<path d="M37.5 56.25H31.25V62.5H37.5V56.25Z" fill="#E5B62E"/>
<path d="M43.75 56.25H37.5V62.5H43.75V56.25Z" fill="#E5B62E"/>
<path d="M50 56.25H43.75V62.5H50V56.25Z" fill="#E5B62E"/>
<path d="M56.25 56.25H50V62.5H56.25V56.25Z" fill="#E5B62E"/>
<path d="M62.5 56.25H56.25V62.5H62.5V56.25Z" fill="#E5B62E"/>
<path d="M68.75 56.25H62.5V62.5H68.75V56.25Z" fill="#E5B62E"/>
<path d="M75 56.25H68.75V62.5H75V56.25Z" fill="#E5B62E"/>
<path d="M81.25 56.25H75V62.5H81.25V56.25Z" fill="#E5B62E"/>
<path d="M87.5 56.25H81.25V62.5H87.5V56.25Z" fill="#E5B62E"/>
<path d="M93.75 56.25H87.5V62.5H93.75V56.25Z" fill="#E5B62E"/>
<path d="M100 56.25H93.75V62.5H100V56.25Z" fill="#E5B62E"/>
<path d="M106.25 56.25H100V62.5H106.25V56.25Z" fill="#E5B62E"/>
<path d="M112.5 56.25H106.25V62.5H112.5V56.25Z" fill="#E5B62E"/>
<path d="M118.75 56.25H112.5V62.5H118.75V56.25Z" fill="#E5B62E"/>
<path d="M125 56.25H118.75V62.5H125V56.25Z" fill="#E5B62E"/>
<path d="M131.25 56.25H125V62.5H131.25V56.25Z" fill="#E5B62E"/>
<path d="M137.5 56.25H131.25V62.5H137.5V56.25Z" fill="#E5B62E"/>
<path d="M143.75 56.25H137.5V62.5H143.75V56.25Z" fill="#E5B62E"/>
<path d="M150 56.25H143.75V62.5H150V56.25Z" fill="#E5B62E"/>
<path d="M156.25 56.25H150V62.5H156.25V56.25Z" fill="#E5B62E"/>
<path d="M162.5 56.25H156.25V62.5H162.5V56.25Z" fill="#E5B62E"/>
<path d="M168.75 56.25H162.5V62.5H168.75V56.25Z" fill="#E5B62E"/>
<path d="M175 56.25H168.75V62.5H175V56.25Z" fill="#E5B62E"/>
<path d="M181.25 56.25H175V62.5H181.25V56.25Z" fill="#E5B62E"/>
<path d="M187.5 56.25H181.25V62.5H187.5V56.25Z" fill="#E5B62E"/>
<path d="M193.75 56.25H187.5V62.5H193.75V56.25Z" fill="#E5B62E"/>
<path d="M200 56.25H193.75V62.5H200V56.25Z" fill="#E5B62E"/>
<path d="M206.25 56.25H200V62.5H206.25V56.25Z" fill="#E5B62E"/>
<path d="M212.5 56.25H206.25V62.5H212.5V56.25Z" fill="#E5B62E"/>
<path d="M218.75 56.25H212.5V62.5H218.75V56.25Z" fill="#E5B62E"/>
<path d="M225 56.25H218.75V62.5H225V56.25Z" fill="#E5B62E"/>
<path d="M231.25 56.25H225V62.5H231.25V56.25Z" fill="#E5B62E"/>
<path d="M237.5 56.25H231.25V62.5H237.5V56.25Z" fill="#E5B62E"/>
<path d="M243.75 56.25H237.5V62.5H243.75V56.25Z" fill="#E5B62E"/>
<path d="M250 56.25H243.75V62.5H250V56.25Z" fill="#E5B62E"/>
<path d="M256.25 56.25H250V62.5H256.25V56.25Z" fill="#E5B62E"/>
<path d="M262.5 56.25H256.25V62.5H262.5V56.25Z" fill="#E5B62E"/>
<path d="M268.75 56.25H262.5V62.5H268.75V56.25Z" fill="#E5B62E"/>
<path d="M275 56.25H268.75V62.5H275V56.25Z" fill="#E5B62E"/>
<path d="M281.25 56.25H275V62.5H281.25V56.25Z" fill="#E5B62E"/>
<path d="M287.5 56.25H281.25V62.5H287.5V56.25Z" fill="#E5B62E"/>
<path d="M293.75 56.25H287.5V62.5H293.75V56.25Z" fill="#C39C28"/>
<path d="M300 56.25H293.75V62.5H300V56.25Z" fill="black"/>
<path d="M6.25 62.5H0V68.75H6.25V62.5Z" fill="black"/>
<path d="M12.5 62.5H6.25V68.75H12.5V62.5Z" fill="white"/>
<path d="M18.75 62.5H12.5V68.75H18.75V62.5Z" fill="#C39C28"/>
<path d="M25 62.5H18.75V68.75H25V62.5Z" fill="#E5B62E"/>
<path d="M31.25 62.5H25V68.75H31.25V62.5Z" fill="#E5B62E"/>
<path d="M37.5 62.5H31.25V68.75H37.5V62.5Z" fill="#E5B62E"/>
<path d="M43.75 62.5H37.5V68.75H43.75V62.5Z" fill="#E5B62E"/>
<path d="M50 62.5H43.75V68.75H50V62.5Z" fill="#E5B62E"/>
<path d="M56.25 62.5H50V68.75H56.25V62.5Z" fill="#E5B62E"/>
<path d="M62.5 62.5H56.25V68.75H62.5V62.5Z" fill="#E5B62E"/>
<path d="M68.75 62.5H62.5V68.75H68.75V62.5Z" fill="#E5B62E"/>
<path d="M75 62.5H68.75V68.75H75V62.5Z" fill="#E5B62E"/>
<path d="M81.25 62.5H75V68.75H81.25V62.5Z" fill="#E5B62E"/>
<path d="M87.5 62.5H81.25V68.75H87.5V62.5Z" fill="#E5B62E"/>
<path d="M93.75 62.5H87.5V68.75H93.75V62.5Z" fill="#E5B62E"/>
<path d="M100 62.5H93.75V68.75H100V62.5Z" fill="#E5B62E"/>
<path d="M106.25 62.5H100V68.75H106.25V62.5Z" fill="#E5B62E"/>
<path d="M112.5 62.5H106.25V68.75H112.5V62.5Z" fill="#E5B62E"/>
<path d="M118.75 62.5H112.5V68.75H118.75V62.5Z" fill="#E5B62E"/>
<path d="M125 62.5H118.75V68.75H125V62.5Z" fill="#E5B62E"/>
<path d="M131.25 62.5H125V68.75H131.25V62.5Z" fill="#E5B62E"/>
<path d="M137.5 62.5H131.25V68.75H137.5V62.5Z" fill="#E5B62E"/>
<path d="M143.75 62.5H137.5V68.75H143.75V62.5Z" fill="#E5B62E"/>
<path d="M150 62.5H143.75V68.75H150V62.5Z" fill="#E5B62E"/>
<path d="M156.25 62.5H150V68.75H156.25V62.5Z" fill="#E5B62E"/>
<path d="M162.5 62.5H156.25V68.75H162.5V62.5Z" fill="#E5B62E"/>
<path d="M168.75 62.5H162.5V68.75H168.75V62.5Z" fill="#E5B62E"/>
<path d="M175 62.5H168.75V68.75H175V62.5Z" fill="#E5B62E"/>
<path d="M181.25 62.5H175V68.75H181.25V62.5Z" fill="#E5B62E"/>
<path d="M187.5 62.5H181.25V68.75H187.5V62.5Z" fill="#E5B62E"/>
<path d="M193.75 62.5H187.5V68.75H193.75V62.5Z" fill="#E5B62E"/>
<path d="M200 62.5H193.75V68.75H200V62.5Z" fill="#E5B62E"/>
<path d="M206.25 62.5H200V68.75H206.25V62.5Z" fill="#E5B62E"/>
<path d="M212.5 62.5H206.25V68.75H212.5V62.5Z" fill="#E5B62E"/>
<path d="M218.75 62.5H212.5V68.75H218.75V62.5Z" fill="#E5B62E"/>
<path d="M225 62.5H218.75V68.75H225V62.5Z" fill="#E5B62E"/>
<path d="M231.25 62.5H225V68.75H231.25V62.5Z" fill="#E5B62E"/>
<path d="M237.5 62.5H231.25V68.75H237.5V62.5Z" fill="#E5B62E"/>
<path d="M243.75 62.5H237.5V68.75H243.75V62.5Z" fill="#E5B62E"/>
<path d="M250 62.5H243.75V68.75H250V62.5Z" fill="#E5B62E"/>
<path d="M256.25 62.5H250V68.75H256.25V62.5Z" fill="#E5B62E"/>
<path d="M262.5 62.5H256.25V68.75H262.5V62.5Z" fill="#E5B62E"/>
<path d="M268.75 62.5H262.5V68.75H268.75V62.5Z" fill="#E5B62E"/>
<path d="M275 62.5H268.75V68.75H275V62.5Z" fill="#E5B62E"/>
<path d="M281.25 62.5H275V68.75H281.25V62.5Z" fill="#E5B62E"/>
<path d="M287.5 62.5H281.25V68.75H287.5V62.5Z" fill="#C39C28"/>
<path d="M293.75 62.5H287.5V68.75H293.75V62.5Z" fill="#C39C28"/>
<path d="M300 62.5H293.75V68.75H300V62.5Z" fill="black"/>
<path d="M6.25 68.75H0V75H6.25V68.75Z" fill="black"/>
<path d="M12.5 68.75H6.25V75H12.5V68.75Z" fill="black"/>
<path d="M18.75 68.75H12.5V75H18.75V68.75Z" fill="white"/>
<path d="M25 68.75H18.75V75H25V68.75Z" fill="#E5B62E"/>
<path d="M31.25 68.75H25V75H31.25V68.75Z" fill="#E5B62E"/>
<path d="M37.5 68.75H31.25V75H37.5V68.75Z" fill="#E5B62E"/>
<path d="M43.75 68.75H37.5V75H43.75V68.75Z" fill="#E5B62E"/>
<path d="M50 68.75H43.75V75H50V68.75Z" fill="#E5B62E"/>
<path d="M56.25 68.75H50V75H56.25V68.75Z" fill="#E5B62E"/>
<path d="M62.5 68.75H56.25V75H62.5V68.75Z" fill="#E5B62E"/>
<path d="M68.75 68.75H62.5V75H68.75V68.75Z" fill="#E5B62E"/>
<path d="M75 68.75H68.75V75H75V68.75Z" fill="#E5B62E"/>
<path d="M81.25 68.75H75V75H81.25V68.75Z" fill="#E5B62E"/>
<path d="M87.5 68.75H81.25V75H87.5V68.75Z" fill="#E5B62E"/>
<path d="M93.75 68.75H87.5V75H93.75V68.75Z" fill="#E5B62E"/>
<path d="M100 68.75H93.75V75H100V68.75Z" fill="#E5B62E"/>
<path d="M106.25 68.75H100V75H106.25V68.75Z" fill="#E5B62E"/>
<path d="M112.5 68.75H106.25V75H112.5V68.75Z" fill="#E5B62E"/>
<path d="M118.75 68.75H112.5V75H118.75V68.75Z" fill="#E5B62E"/>
<path d="M125 68.75H118.75V75H125V68.75Z" fill="#E5B62E"/>
<path d="M131.25 68.75H125V75H131.25V68.75Z" fill="#E5B62E"/>
<path d="M137.5 68.75H131.25V75H137.5V68.75Z" fill="#E5B62E"/>
<path d="M143.75 68.75H137.5V75H143.75V68.75Z" fill="#E5B62E"/>
<path d="M150 68.75H143.75V75H150V68.75Z" fill="#E5B62E"/>
<path d="M156.25 68.75H150V75H156.25V68.75Z" fill="#E5B62E"/>
<path d="M162.5 68.75H156.25V75H162.5V68.75Z" fill="#E5B62E"/>
<path d="M168.75 68.75H162.5V75H168.75V68.75Z" fill="#E5B62E"/>
<path d="M175 68.75H168.75V75H175V68.75Z" fill="#E5B62E"/>
<path d="M181.25 68.75H175V75H181.25V68.75Z" fill="#E5B62E"/>
<path d="M187.5 68.75H181.25V75H187.5V68.75Z" fill="#E5B62E"/>
<path d="M193.75 68.75H187.5V75H193.75V68.75Z" fill="#E5B62E"/>
<path d="M200 68.75H193.75V75H200V68.75Z" fill="#E5B62E"/>
<path d="M206.25 68.75H200V75H206.25V68.75Z" fill="#E5B62E"/>
<path d="M212.5 68.75H206.25V75H212.5V68.75Z" fill="#E5B62E"/>
<path d="M218.75 68.75H212.5V75H218.75V68.75Z" fill="#E5B62E"/>
<path d="M225 68.75H218.75V75H225V68.75Z" fill="#E5B62E"/>
<path d="M231.25 68.75H225V75H231.25V68.75Z" fill="#E5B62E"/>
<path d="M237.5 68.75H231.25V75H237.5V68.75Z" fill="#E5B62E"/>
<path d="M243.75 68.75H237.5V75H243.75V68.75Z" fill="#E5B62E"/>
<path d="M250 68.75H243.75V75H250V68.75Z" fill="#E5B62E"/>
<path d="M256.25 68.75H250V75H256.25V68.75Z" fill="#E5B62E"/>
<path d="M262.5 68.75H256.25V75H262.5V68.75Z" fill="#E5B62E"/>
<path d="M268.75 68.75H262.5V75H268.75V68.75Z" fill="#E5B62E"/>
<path d="M275 68.75H268.75V75H275V68.75Z" fill="#E5B62E"/>
<path d="M281.25 68.75H275V75H281.25V68.75Z" fill="#E5B62E"/>
<path d="M287.5 68.75H281.25V75H287.5V68.75Z" fill="#C39C28"/>
<path d="M293.75 68.75H287.5V75H293.75V68.75Z" fill="black"/>
<path d="M300 68.75H293.75V75H300V68.75Z" fill="black"/>
<path d="M12.5 75H6.25V81.25H12.5V75Z" fill="black"/>
<path d="M18.75 75H12.5V81.25H18.75V75Z" fill="#C39C28"/>
<path d="M25 75H18.75V81.25H25V75Z" fill="#C39C28"/>
<path d="M31.25 75H25V81.25H31.25V75Z" fill="#C39C28"/>
<path d="M37.5 75H31.25V81.25H37.5V75Z" fill="#E5B62E"/>
<path d="M43.75 75H37.5V81.25H43.75V75Z" fill="#E5B62E"/>
<path d="M50 75H43.75V81.25H50V75Z" fill="#E5B62E"/>
<path d="M56.25 75H50V81.25H56.25V75Z" fill="#E5B62E"/>
<path d="M62.5 75H56.25V81.25H62.5V75Z" fill="#E5B62E"/>
<path d="M68.75 75H62.5V81.25H68.75V75Z" fill="#E5B62E"/>
<path d="M75 75H68.75V81.25H75V75Z" fill="#E5B62E"/>
<path d="M81.25 75H75V81.25H81.25V75Z" fill="#E5B62E"/>
<path d="M87.5 75H81.25V81.25H87.5V75Z" fill="#E5B62E"/>
<path d="M93.75 75H87.5V81.25H93.75V75Z" fill="#E5B62E"/>
<path d="M100 75H93.75V81.25H100V75Z" fill="#E5B62E"/>
<path d="M106.25 75H100V81.25H106.25V75Z" fill="#E5B62E"/>
<path d="M112.5 75H106.25V81.25H112.5V75Z" fill="#E5B62E"/>
<path d="M118.75 75H112.5V81.25H118.75V75Z" fill="#E5B62E"/>
<path d="M125 75H118.75V81.25H125V75Z" fill="#E5B62E"/>
<path d="M131.25 75H125V81.25H131.25V75Z" fill="#E5B62E"/>
<path d="M137.5 75H131.25V81.25H137.5V75Z" fill="#E5B62E"/>
<path d="M143.75 75H137.5V81.25H143.75V75Z" fill="#E5B62E"/>
<path d="M150 75H143.75V81.25H150V75Z" fill="#E5B62E"/>
<path d="M156.25 75H150V81.25H156.25V75Z" fill="#E5B62E"/>
<path d="M162.5 75H156.25V81.25H162.5V75Z" fill="#E5B62E"/>
<path d="M168.75 75H162.5V81.25H168.75V75Z" fill="#E5B62E"/>
<path d="M175 75H168.75V81.25H175V75Z" fill="#E5B62E"/>
<path d="M181.25 75H175V81.25H181.25V75Z" fill="#E5B62E"/>
<path d="M187.5 75H181.25V81.25H187.5V75Z" fill="#E5B62E"/>
<path d="M193.75 75H187.5V81.25H193.75V75Z" fill="#E5B62E"/>
<path d="M200 75H193.75V81.25H200V75Z" fill="#E5B62E"/>
<path d="M206.25 75H200V81.25H206.25V75Z" fill="#E5B62E"/>
<path d="M212.5 75H206.25V81.25H212.5V75Z" fill="#E5B62E"/>
<path d="M218.75 75H212.5V81.25H218.75V75Z" fill="#E5B62E"/>
<path d="M225 75H218.75V81.25H225V75Z" fill="#E5B62E"/>
<path d="M231.25 75H225V81.25H231.25V75Z" fill="#E5B62E"/>
<path d="M237.5 75H231.25V81.25H237.5V75Z" fill="#E5B62E"/>
<path d="M243.75 75H237.5V81.25H243.75V75Z" fill="#E5B62E"/>
<path d="M250 75H243.75V81.25H250V75Z" fill="#E5B62E"/>
<path d="M256.25 75H250V81.25H256.25V75Z" fill="#E5B62E"/>
<path d="M262.5 75H256.25V81.25H262.5V75Z" fill="#E5B62E"/>
<path d="M268.75 75H262.5V81.25H268.75V75Z" fill="#E5B62E"/>
<path d="M275 75H268.75V81.25H275V75Z" fill="#C39C28"/>
<path d="M281.25 75H275V81.25H281.25V75Z" fill="#C39C28"/>
<path d="M287.5 75H281.25V81.25H287.5V75Z" fill="#C39C28"/>
<path d="M293.75 75H287.5V81.25H293.75V75Z" fill="black"/>
<path d="M12.5 81.25H6.25V87.5H12.5V81.25Z" fill="black"/>
<path d="M18.75 81.25H12.5V87.5H18.75V81.25Z" fill="black"/>
<path d="M25 81.25H18.75V87.5H25V81.25Z" fill="#C39C28"/>
<path d="M31.25 81.25H25V87.5H31.25V81.25Z" fill="#C39C28"/>
<path d="M37.5 81.25H31.25V87.5H37.5V81.25Z" fill="#C39C28"/>
<path d="M43.75 81.25H37.5V87.5H43.75V81.25Z" fill="#C39C28"/>
<path d="M50 81.25H43.75V87.5H50V81.25Z" fill="#C39C28"/>
<path d="M56.25 81.25H50V87.5H56.25V81.25Z" fill="#C39C28"/>
<path d="M62.5 81.25H56.25V87.5H62.5V81.25Z" fill="#C39C28"/>
<path d="M68.75 81.25H62.5V87.5H68.75V81.25Z" fill="#C39C28"/>
<path d="M75 81.25H68.75V87.5H75V81.25Z" fill="#C39C28"/>
<path d="M81.25 81.25H75V87.5H81.25V81.25Z" fill="#C39C28"/>
<path d="M87.5 81.25H81.25V87.5H87.5V81.25Z" fill="#C39C28"/>
<path d="M93.75 81.25H87.5V87.5H93.75V81.25Z" fill="#C39C28"/>
<path d="M100 81.25H93.75V87.5H100V81.25Z" fill="#C39C28"/>
<path d="M106.25 81.25H100V87.5H106.25V81.25Z" fill="#C39C28"/>
<path d="M112.5 81.25H106.25V87.5H112.5V81.25Z" fill="#C39C28"/>
<path d="M118.75 81.25H112.5V87.5H118.75V81.25Z" fill="#C39C28"/>
<path d="M125 81.25H118.75V87.5H125V81.25Z" fill="#C39C28"/>
<path d="M131.25 81.25H125V87.5H131.25V81.25Z" fill="#C39C28"/>
<path d="M137.5 81.25H131.25V87.5H137.5V81.25Z" fill="#C39C28"/>
<path d="M143.75 81.25H137.5V87.5H143.75V81.25Z" fill="#C39C28"/>
<path d="M150 81.25H143.75V87.5H150V81.25Z" fill="#C39C28"/>
<path d="M156.25 81.25H150V87.5H156.25V81.25Z" fill="#C39C28"/>
<path d="M162.5 81.25H156.25V87.5H162.5V81.25Z" fill="#C39C28"/>
<path d="M168.75 81.25H162.5V87.5H168.75V81.25Z" fill="#C39C28"/>
<path d="M175 81.25H168.75V87.5H175V81.25Z" fill="#C39C28"/>
<path d="M181.25 81.25H175V87.5H181.25V81.25Z" fill="#C39C28"/>
<path d="M187.5 81.25H181.25V87.5H187.5V81.25Z" fill="#C39C28"/>
<path d="M193.75 81.25H187.5V87.5H193.75V81.25Z" fill="#C39C28"/>
<path d="M200 81.25H193.75V87.5H200V81.25Z" fill="#C39C28"/>
<path d="M206.25 81.25H200V87.5H206.25V81.25Z" fill="#C39C28"/>
<path d="M212.5 81.25H206.25V87.5H212.5V81.25Z" fill="#C39C28"/>
<path d="M218.75 81.25H212.5V87.5H218.75V81.25Z" fill="#C39C28"/>
<path d="M225 81.25H218.75V87.5H225V81.25Z" fill="#C39C28"/>
<path d="M231.25 81.25H225V87.5H231.25V81.25Z" fill="#C39C28"/>
<path d="M237.5 81.25H231.25V87.5H237.5V81.25Z" fill="#C39C28"/>
<path d="M243.75 81.25H237.5V87.5H243.75V81.25Z" fill="#C39C28"/>
<path d="M250 81.25H243.75V87.5H250V81.25Z" fill="#C39C28"/>
<path d="M256.25 81.25H250V87.5H256.25V81.25Z" fill="#C39C28"/>
<path d="M262.5 81.25H256.25V87.5H262.5V81.25Z" fill="#C39C28"/>
<path d="M268.75 81.25H262.5V87.5H268.75V81.25Z" fill="#C39C28"/>
<path d="M275 81.25H268.75V87.5H275V81.25Z" fill="#C39C28"/>
<path d="M281.25 81.25H275V87.5H281.25V81.25Z" fill="#C39C28"/>
<path d="M287.5 81.25H281.25V87.5H287.5V81.25Z" fill="black"/>
<path d="M293.75 81.25H287.5V87.5H293.75V81.25Z" fill="black"/>
<path d="M18.75 87.5H12.5V93.75H18.75V87.5Z" fill="black"/>
<path d="M25 87.5H18.75V93.75H25V87.5Z" fill="black"/>
<path d="M31.25 87.5H25V93.75H31.25V87.5Z" fill="black"/>
<path d="M37.5 87.5H31.25V93.75H37.5V87.5Z" fill="#C39C28"/>
<path d="M43.75 87.5H37.5V93.75H43.75V87.5Z" fill="#C39C28"/>
<path d="M50 87.5H43.75V93.75H50V87.5Z" fill="#C39C28"/>
<path d="M56.25 87.5H50V93.75H56.25V87.5Z" fill="#C39C28"/>
<path d="M62.5 87.5H56.25V93.75H62.5V87.5Z" fill="#C39C28"/>
<path d="M68.75 87.5H62.5V93.75H68.75V87.5Z" fill="#C39C28"/>
<path d="M75 87.5H68.75V93.75H75V87.5Z" fill="#C39C28"/>
<path d="M81.25 87.5H75V93.75H81.25V87.5Z" fill="#C39C28"/>
<path d="M87.5 87.5H81.25V93.75H87.5V87.5Z" fill="#C39C28"/>
<path d="M93.75 87.5H87.5V93.75H93.75V87.5Z" fill="#C39C28"/>
<path d="M100 87.5H93.75V93.75H100V87.5Z" fill="#C39C28"/>
<path d="M106.25 87.5H100V93.75H106.25V87.5Z" fill="#C39C28"/>
<path d="M112.5 87.5H106.25V93.75H112.5V87.5Z" fill="#C39C28"/>
<path d="M118.75 87.5H112.5V93.75H118.75V87.5Z" fill="#C39C28"/>
<path d="M125 87.5H118.75V93.75H125V87.5Z" fill="#C39C28"/>
<path d="M131.25 87.5H125V93.75H131.25V87.5Z" fill="#C39C28"/>
<path d="M137.5 87.5H131.25V93.75H137.5V87.5Z" fill="#C39C28"/>
<path d="M143.75 87.5H137.5V93.75H143.75V87.5Z" fill="#C39C28"/>
<path d="M150 87.5H143.75V93.75H150V87.5Z" fill="#C39C28"/>
<path d="M156.25 87.5H150V93.75H156.25V87.5Z" fill="#C39C28"/>
<path d="M162.5 87.5H156.25V93.75H162.5V87.5Z" fill="#C39C28"/>
<path d="M168.75 87.5H162.5V93.75H168.75V87.5Z" fill="#C39C28"/>
<path d="M175 87.5H168.75V93.75H175V87.5Z" fill="#C39C28"/>
<path d="M181.25 87.5H175V93.75H181.25V87.5Z" fill="#C39C28"/>
<path d="M187.5 87.5H181.25V93.75H187.5V87.5Z" fill="#C39C28"/>
<path d="M193.75 87.5H187.5V93.75H193.75V87.5Z" fill="#C39C28"/>
<path d="M200 87.5H193.75V93.75H200V87.5Z" fill="#C39C28"/>
<path d="M206.25 87.5H200V93.75H206.25V87.5Z" fill="#C39C28"/>
<path d="M212.5 87.5H206.25V93.75H212.5V87.5Z" fill="#C39C28"/>
<path d="M218.75 87.5H212.5V93.75H218.75V87.5Z" fill="#C39C28"/>
<path d="M225 87.5H218.75V93.75H225V87.5Z" fill="#C39C28"/>
<path d="M231.25 87.5H225V93.75H231.25V87.5Z" fill="#C39C28"/>
<path d="M237.5 87.5H231.25V93.75H237.5V87.5Z" fill="#C39C28"/>
<path d="M243.75 87.5H237.5V93.75H243.75V87.5Z" fill="#C39C28"/>
<path d="M250 87.5H243.75V93.75H250V87.5Z" fill="#C39C28"/>
<path d="M256.25 87.5H250V93.75H256.25V87.5Z" fill="#C39C28"/>
<path d="M262.5 87.5H256.25V93.75H262.5V87.5Z" fill="#C39C28"/>
<path d="M268.75 87.5H262.5V93.75H268.75V87.5Z" fill="#C39C28"/>
<path d="M275 87.5H268.75V93.75H275V87.5Z" fill="black"/>
<path d="M281.25 87.5H275V93.75H281.25V87.5Z" fill="black"/>
<path d="M287.5 87.5H281.25V93.75H287.5V87.5Z" fill="black"/>
<path d="M31.25 93.75H25V100H31.25V93.75Z" fill="black"/>
<path d="M37.5 93.75H31.25V100H37.5V93.75Z" fill="black"/>
<path d="M43.75 93.75H37.5V100H43.75V93.75Z" fill="black"/>
<path d="M50 93.75H43.75V100H50V93.75Z" fill="black"/>
<path d="M56.25 93.75H50V100H56.25V93.75Z" fill="black"/>
<path d="M62.5 93.75H56.25V100H62.5V93.75Z" fill="black"/>
<path d="M68.75 93.75H62.5V100H68.75V93.75Z" fill="black"/>
<path d="M75 93.75H68.75V100H75V93.75Z" fill="black"/>
<path d="M81.25 93.75H75V100H81.25V93.75Z" fill="black"/>
<path d="M87.5 93.75H81.25V100H87.5V93.75Z" fill="black"/>
<path d="M93.75 93.75H87.5V100H93.75V93.75Z" fill="black"/>
<path d="M100 93.75H93.75V100H100V93.75Z" fill="black"/>
<path d="M106.25 93.75H100V100H106.25V93.75Z" fill="black"/>
<path d="M112.5 93.75H106.25V100H112.5V93.75Z" fill="black"/>
<path d="M118.75 93.75H112.5V100H118.75V93.75Z" fill="black"/>
<path d="M125 93.75H118.75V100H125V93.75Z" fill="black"/>
<path d="M131.25 93.75H125V100H131.25V93.75Z" fill="black"/>
<path d="M137.5 93.75H131.25V100H137.5V93.75Z" fill="black"/>
<path d="M143.75 93.75H137.5V100H143.75V93.75Z" fill="black"/>
<path d="M150 93.75H143.75V100H150V93.75Z" fill="black"/>
<path d="M156.25 93.75H150V100H156.25V93.75Z" fill="black"/>
<path d="M162.5 93.75H156.25V100H162.5V93.75Z" fill="black"/>
<path d="M168.75 93.75H162.5V100H168.75V93.75Z" fill="black"/>
<path d="M175 93.75H168.75V100H175V93.75Z" fill="black"/>
<path d="M181.25 93.75H175V100H181.25V93.75Z" fill="black"/>
<path d="M187.5 93.75H181.25V100H187.5V93.75Z" fill="black"/>
<path d="M193.75 93.75H187.5V100H193.75V93.75Z" fill="black"/>
<path d="M200 93.75H193.75V100H200V93.75Z" fill="black"/>
<path d="M206.25 93.75H200V100H206.25V93.75Z" fill="black"/>
<path d="M212.5 93.75H206.25V100H212.5V93.75Z" fill="black"/>
<path d="M218.75 93.75H212.5V100H218.75V93.75Z" fill="black"/>
<path d="M225 93.75H218.75V100H225V93.75Z" fill="black"/>
<path d="M231.25 93.75H225V100H231.25V93.75Z" fill="black"/>
<path d="M237.5 93.75H231.25V100H237.5V93.75Z" fill="black"/>
<path d="M243.75 93.75H237.5V100H243.75V93.75Z" fill="black"/>
<path d="M250 93.75H243.75V100H250V93.75Z" fill="black"/>
<path d="M256.25 93.75H250V100H256.25V93.75Z" fill="black"/>
<path d="M262.5 93.75H256.25V100H262.5V93.75Z" fill="black"/>
<path d="M268.75 93.75H262.5V100H268.75V93.75Z" fill="black"/>
<path d="M275 93.75H268.75V100H275V93.75Z" fill="black"/>
</svg>
